<svg id="svg" version="1.1" xmlns="http://www.w3.org/2000/svg" xmlns:xlink="http://www.w3.org/1999/xlink" width="400" height="400" viewBox="0, 0, 400,400"><g id="svgg"><path id="path0" d="M285.800 52.800 C 285.592 53.456,285.195 53.600,283.596 53.600 C 282.170 53.600,281.505 53.795,281.123 54.326 C 280.835 54.726,280.285 55.170,279.900 55.314 C 279.515 55.457,279.200 55.920,279.200 56.341 C 279.200 56.770,278.849 57.199,278.400 57.316 C 277.738 57.489,277.600 57.862,277.600 59.468 C 277.600 60.618,277.288 61.995,276.835 62.839 C 276.333 63.775,275.970 65.561,275.777 68.033 C 275.616 70.105,275.236 72.179,274.934 72.642 C 274.631 73.105,274.274 74.995,274.139 76.842 C 274.004 78.689,273.664 80.470,273.384 80.800 C 273.104 81.130,272.757 82.660,272.612 84.200 C 272.467 85.740,272.195 87.360,272.008 87.800 C 271.344 89.358,270.800 92.383,270.800 94.515 C 270.800 96.168,270.612 96.846,270.000 97.400 C 269.376 97.965,269.200 98.632,269.200 100.435 C 269.200 102.395,269.078 102.785,268.400 103.000 C 267.718 103.216,267.600 103.605,267.600 105.627 C 267.600 107.733,267.510 108.000,266.800 108.000 C 266.119 108.000,266.000 108.267,266.000 109.800 C 266.000 111.123,265.843 111.600,265.408 111.600 C 265.082 111.600,264.706 112.095,264.573 112.700 C 264.192 114.426,264.066 114.667,264.032 113.733 C 263.975 112.172,263.543 111.626,262.161 111.366 C 261.184 111.183,260.800 110.898,260.800 110.355 C 260.800 109.867,260.518 109.600,260.000 109.600 C 259.467 109.600,259.200 109.333,259.200 108.800 C 259.200 108.267,258.933 108.000,258.400 108.000 C 257.867 108.000,257.600 107.733,257.600 107.200 C 257.600 106.683,257.333 106.400,256.847 106.400 C 256.432 106.400,256.002 106.052,255.891 105.626 C 255.759 105.122,255.198 104.761,254.281 104.589 C 253.373 104.418,252.803 104.054,252.674 103.562 C 252.563 103.137,252.125 102.800,251.684 102.800 C 251.230 102.800,250.804 102.460,250.684 102.000 C 250.569 101.560,250.181 101.200,249.821 101.200 C 249.461 101.200,248.780 100.840,248.308 100.400 C 247.836 99.960,247.166 99.600,246.821 99.600 C 246.475 99.600,245.968 99.240,245.693 98.800 C 245.348 98.248,244.760 98.000,243.797 98.000 C 242.870 98.000,242.400 97.813,242.400 97.443 C 242.400 96.805,241.551 96.400,240.214 96.400 C 239.630 96.400,239.217 96.108,239.084 95.600 C 238.927 95.000,238.538 94.800,237.526 94.800 C 236.673 94.800,235.926 94.506,235.493 94.000 C 235.060 93.495,234.313 93.200,233.466 93.200 C 232.662 93.200,231.852 92.899,231.445 92.450 C 231.053 92.016,230.008 91.615,228.967 91.497 C 227.977 91.386,226.860 91.023,226.484 90.690 C 226.108 90.358,224.630 89.959,223.200 89.805 C 221.770 89.651,220.230 89.290,219.777 89.003 C 219.325 88.717,217.525 88.360,215.777 88.210 C 214.030 88.059,211.970 87.640,211.200 87.279 C 209.074 86.280,177.703 86.267,175.600 87.264 C 174.830 87.629,172.784 88.043,171.054 88.185 C 169.324 88.326,167.524 88.692,167.054 88.997 C 166.584 89.302,165.210 89.676,164.000 89.828 C 162.790 89.979,161.482 90.381,161.094 90.719 C 160.705 91.058,159.409 91.416,158.212 91.516 C 156.764 91.636,155.810 91.947,155.357 92.448 C 154.916 92.935,154.135 93.200,153.141 93.200 C 152.040 93.200,151.466 93.426,151.107 94.000 C 150.751 94.570,150.174 94.800,149.104 94.800 C 147.867 94.800,147.600 94.942,147.600 95.600 C 147.600 96.270,147.333 96.400,145.963 96.400 C 144.662 96.400,144.282 96.564,144.116 97.200 C 143.957 97.806,143.570 98.000,142.516 98.000 C 141.462 98.000,141.075 98.194,140.916 98.800 C 140.757 99.406,140.370 99.600,139.316 99.600 C 138.262 99.600,137.875 99.794,137.716 100.400 C 137.601 100.840,137.202 101.200,136.829 101.200 C 136.456 101.200,135.764 101.560,135.292 102.000 C 134.820 102.440,134.078 102.800,133.644 102.800 C 133.205 102.800,132.741 103.156,132.600 103.600 C 132.460 104.040,132.107 104.400,131.815 104.400 C 131.523 104.400,130.860 104.847,130.342 105.393 C 129.824 105.939,129.068 106.389,128.663 106.393 C 128.257 106.397,127.831 106.760,127.716 107.200 C 127.600 107.643,127.170 108.000,126.753 108.000 C 126.267 108.000,126.000 108.283,126.000 108.800 C 126.000 109.369,125.733 109.600,125.078 109.600 C 124.119 109.600,121.200 111.974,121.200 112.754 C 121.200 112.999,121.014 113.200,120.788 113.200 C 120.561 113.200,119.796 113.855,119.088 114.656 C 118.379 115.457,117.035 116.866,116.100 117.787 C 115.165 118.709,114.400 119.605,114.400 119.778 C 114.400 119.952,113.680 120.792,112.800 121.646 C 111.920 122.500,111.200 123.469,111.200 123.800 C 111.200 124.133,110.845 124.400,110.400 124.400 C 109.867 124.400,109.600 124.667,109.600 125.200 C 109.600 125.733,109.333 126.000,108.800 126.000 C 108.178 126.000,108.000 126.267,108.000 127.197 C 108.000 127.960,107.710 128.574,107.200 128.893 C 106.760 129.168,106.400 129.624,106.400 129.906 C 106.400 130.189,105.950 130.591,105.400 130.800 C 104.850 131.009,104.400 131.455,104.400 131.790 C 104.400 132.126,104.040 132.760,103.600 133.200 C 103.160 133.640,102.800 134.429,102.800 134.953 C 102.800 135.570,102.518 135.981,102.000 136.116 C 101.460 136.257,101.200 136.662,101.200 137.359 C 101.200 137.960,100.865 138.603,100.400 138.893 C 99.960 139.168,99.600 139.771,99.600 140.234 C 99.600 140.697,99.240 141.402,98.800 141.800 C 98.360 142.198,98.000 142.856,98.000 143.262 C 98.000 143.668,97.640 144.360,97.200 144.800 C 96.637 145.363,96.400 146.133,96.400 147.400 C 96.400 148.933,96.281 149.200,95.600 149.200 C 94.978 149.200,94.800 149.467,94.800 150.397 C 94.800 151.160,94.510 151.774,94.000 152.093 C 93.403 152.465,93.200 153.026,93.200 154.296 C 93.200 155.534,93.038 156.000,92.608 156.000 C 92.021 156.000,91.867 156.422,91.412 159.260 C 91.284 160.063,90.934 160.923,90.634 161.172 C 90.334 161.420,89.968 162.594,89.820 163.779 C 89.669 164.990,89.317 166.023,89.018 166.138 C 88.701 166.259,88.367 167.361,88.193 168.861 C 88.032 170.246,87.666 171.744,87.378 172.190 C 87.091 172.635,86.741 174.350,86.600 176.000 C 86.459 177.650,86.201 179.360,86.027 179.800 C 85.078 182.201,84.800 183.778,84.800 186.766 C 84.800 189.738,84.719 190.096,84.000 190.284 C 83.268 190.475,83.200 190.830,83.200 194.433 C 83.200 197.962,83.117 198.416,82.400 198.800 C 81.661 199.196,81.600 199.638,81.600 204.614 C 81.600 209.733,81.560 210.000,80.800 210.000 C 80.043 210.000,80.000 210.267,80.000 214.953 C 80.000 219.449,79.931 219.925,79.255 220.102 C 78.606 220.271,78.471 220.885,78.216 224.833 C 77.991 228.301,77.770 229.480,77.276 229.841 C 76.816 230.178,76.584 231.153,76.465 233.249 C 76.348 235.322,76.113 236.322,75.665 236.649 C 75.221 236.974,74.983 237.964,74.870 239.956 C 74.760 241.917,74.551 242.800,74.198 242.800 C 73.504 242.800,73.200 243.723,73.200 245.833 C 73.200 247.067,72.959 247.841,72.400 248.400 C 71.850 248.950,71.600 249.733,71.600 250.904 C 71.600 252.174,71.397 252.735,70.800 253.107 C 70.182 253.493,70.000 254.040,70.000 255.507 C 70.000 256.974,69.818 257.521,69.200 257.907 C 68.558 258.308,68.400 258.840,68.400 260.603 C 68.400 262.533,68.303 262.800,67.600 262.800 C 66.937 262.800,66.800 263.067,66.800 264.353 C 66.800 265.570,66.627 265.952,66.000 266.116 C 65.320 266.294,65.200 266.662,65.200 268.563 C 65.200 270.533,65.105 270.800,64.400 270.800 C 63.825 270.800,63.600 271.067,63.600 271.746 C 63.600 272.266,63.265 273.121,62.855 273.646 C 62.445 274.171,61.974 275.050,61.808 275.600 C 61.641 276.150,61.271 276.870,60.984 277.200 C 60.697 277.530,60.341 278.288,60.192 278.884 C 60.043 279.480,59.669 280.177,59.361 280.433 C 59.052 280.689,58.800 281.136,58.800 281.428 C 58.800 281.719,58.350 282.804,57.800 283.838 C 57.250 284.873,56.800 286.052,56.800 286.460 C 56.800 286.867,56.440 287.560,56.000 288.000 C 55.560 288.440,55.200 289.160,55.200 289.600 C 55.200 290.040,54.840 290.760,54.400 291.200 C 53.843 291.757,53.600 292.533,53.600 293.753 C 53.600 295.170,53.447 295.547,52.800 295.716 C 52.079 295.905,52.000 296.262,52.000 299.348 C 52.000 302.362,52.096 302.823,52.800 303.200 C 53.388 303.515,53.600 304.038,53.600 305.171 C 53.600 306.159,53.811 306.796,54.187 306.940 C 54.510 307.064,55.031 307.779,55.344 308.528 C 55.688 309.350,56.368 310.077,57.057 310.358 C 57.686 310.615,58.650 311.087,59.200 311.407 C 59.750 311.726,60.540 311.991,60.956 311.994 C 61.372 311.997,61.918 312.282,62.170 312.627 C 62.422 312.971,63.379 313.354,64.298 313.477 C 65.216 313.600,66.273 314.038,66.646 314.450 C 67.075 314.925,67.865 315.200,68.800 315.200 C 69.768 315.200,70.525 315.475,71.000 316.000 C 71.398 316.440,72.056 316.800,72.462 316.800 C 72.868 316.800,73.560 317.160,74.000 317.600 C 74.563 318.163,75.333 318.400,76.600 318.400 C 77.867 318.400,78.637 318.637,79.200 319.200 C 79.725 319.725,80.533 320.000,81.553 320.000 C 82.728 320.000,83.154 320.180,83.300 320.739 C 83.486 321.450,85.058 322.000,86.906 322.000 C 87.349 322.000,87.918 322.282,88.170 322.627 C 88.422 322.971,89.387 323.355,90.314 323.479 C 91.241 323.604,92.000 323.833,92.000 323.988 C 92.000 324.533,94.052 325.200,95.730 325.200 C 96.927 325.200,97.623 325.434,98.107 326.000 C 98.622 326.601,99.287 326.800,100.782 326.800 C 102.362 326.800,102.860 326.965,103.200 327.600 C 103.540 328.235,104.038 328.400,105.614 328.400 C 107.067 328.400,107.815 328.615,108.400 329.200 C 109.073 329.873,109.733 330.000,112.553 330.000 C 115.570 330.000,115.928 330.080,116.116 330.800 C 116.295 331.485,116.662 331.600,118.674 331.600 C 120.527 331.600,121.167 331.769,121.707 332.400 C 122.297 333.089,122.887 333.200,125.949 333.200 C 129.170 333.200,129.526 333.276,129.716 334.000 C 129.906 334.727,130.262 334.800,133.598 334.800 C 136.777 334.800,137.361 334.907,137.936 335.596 C 138.500 336.273,139.291 336.432,143.200 336.656 C 145.730 336.802,147.923 337.110,148.074 337.342 C 148.431 337.891,153.057 338.344,158.620 338.375 C 161.379 338.391,163.212 338.572,163.499 338.859 C 164.847 340.207,218.736 340.480,220.266 339.146 C 220.825 338.658,222.285 338.448,226.399 338.261 C 230.562 338.073,231.900 337.877,232.243 337.408 C 232.533 337.013,233.372 336.794,234.644 336.783 C 237.529 336.757,240.071 336.173,240.480 335.443 C 240.757 334.948,241.483 334.800,243.624 334.800 C 245.913 334.800,246.530 334.658,247.093 334.000 C 247.620 333.384,248.273 333.200,249.926 333.200 C 251.738 333.200,252.108 333.075,252.284 332.400 C 252.449 331.769,252.830 331.600,254.084 331.600 C 255.338 331.600,255.719 331.431,255.884 330.800 C 256.061 330.123,256.430 330.000,258.284 330.000 C 260.138 330.000,260.507 329.877,260.684 329.200 C 260.799 328.760,261.134 328.400,261.428 328.400 C 262.238 328.400,264.000 326.469,264.000 325.582 C 264.000 325.084,264.272 324.800,264.750 324.800 C 265.681 324.800,266.000 323.406,266.000 319.330 C 266.000 316.424,265.268 314.000,264.390 314.000 C 264.175 314.000,264.000 313.550,264.000 313.000 C 264.000 312.305,263.781 312.000,263.283 312.000 C 262.819 312.000,262.430 311.541,262.183 310.700 C 261.895 309.723,261.477 309.305,260.501 309.017 C 259.786 308.807,259.099 308.312,258.974 307.917 C 258.780 307.307,258.273 307.200,255.559 307.200 C 253.452 307.200,252.072 307.004,251.486 306.621 C 250.970 306.284,249.013 305.930,246.800 305.775 C 244.498 305.614,242.369 305.221,241.400 304.779 C 240.520 304.378,239.143 303.944,238.340 303.815 C 237.537 303.685,236.672 303.328,236.417 303.021 C 236.162 302.714,235.244 302.343,234.377 302.196 C 233.184 301.995,232.800 301.744,232.800 301.165 C 232.800 300.682,232.522 300.400,232.047 300.400 C 231.630 300.400,231.200 300.043,231.084 299.600 C 230.969 299.160,230.588 298.800,230.237 298.800 C 229.867 298.800,229.600 298.465,229.600 298.000 C 229.600 297.467,229.333 297.200,228.800 297.200 C 228.267 297.200,228.000 296.933,228.000 296.400 C 228.000 295.867,227.733 295.600,227.200 295.600 C 226.667 295.600,226.400 295.333,226.400 294.800 C 226.400 294.267,226.133 294.000,225.600 294.000 C 224.930 294.000,224.800 293.733,224.800 292.363 C 224.800 291.104,224.628 290.680,224.057 290.531 C 223.430 290.367,223.278 289.798,223.082 286.868 C 222.954 284.961,222.624 282.443,222.350 281.274 C 221.963 279.626,221.955 278.637,222.314 276.874 C 222.569 275.623,222.901 273.070,223.051 271.200 C 223.264 268.560,223.490 267.683,224.063 267.277 C 224.535 266.942,224.800 266.260,224.800 265.377 C 224.800 264.425,224.983 264.000,225.395 264.000 C 225.780 264.000,226.081 263.435,226.246 262.400 C 226.439 261.194,226.687 260.800,227.251 260.800 C 227.733 260.800,228.000 260.515,228.000 260.000 C 228.000 259.548,228.267 259.200,228.613 259.200 C 228.949 259.200,229.340 258.900,229.481 258.533 C 229.622 258.166,230.426 257.197,231.268 256.380 C 232.111 255.562,232.800 254.693,232.800 254.447 C 232.800 254.201,233.064 254.000,233.386 254.000 C 233.708 254.000,234.165 253.640,234.400 253.200 C 234.635 252.760,235.092 252.400,235.414 252.400 C 235.736 252.400,236.000 252.150,236.000 251.845 C 236.000 251.530,236.589 251.179,237.359 251.034 C 238.107 250.894,239.170 250.424,239.723 249.989 C 240.275 249.555,241.075 249.200,241.501 249.200 C 241.927 249.200,242.602 248.840,243.000 248.400 C 243.450 247.903,244.232 247.600,245.066 247.600 C 245.913 247.600,246.660 247.305,247.093 246.800 C 247.737 246.048,248.273 246.000,256.000 246.000 C 263.727 246.000,264.263 246.048,264.907 246.800 C 265.423 247.402,266.087 247.600,267.596 247.600 C 269.042 247.600,269.600 247.755,269.600 248.157 C 269.600 248.787,270.447 249.200,271.736 249.200 C 272.216 249.200,272.817 249.535,273.072 249.944 C 273.327 250.353,274.091 250.798,274.768 250.934 C 275.498 251.080,276.000 251.429,276.000 251.790 C 276.000 252.133,276.350 252.400,276.800 252.400 C 277.265 252.400,277.600 252.667,277.600 253.037 C 277.600 253.388,277.960 253.769,278.400 253.884 C 278.840 253.999,279.200 254.420,279.200 254.820 C 279.200 255.219,279.560 255.660,280.000 255.800 C 280.440 255.940,280.800 256.402,280.800 256.827 C 280.800 257.333,281.076 257.600,281.600 257.600 C 282.222 257.600,282.400 257.867,282.400 258.797 C 282.400 259.560,282.690 260.174,283.200 260.493 C 283.640 260.768,284.000 261.384,284.000 261.864 C 284.000 263.153,284.413 264.000,285.043 264.000 C 285.452 264.000,285.600 264.587,285.600 266.204 C 285.600 267.913,285.780 268.562,286.400 269.093 C 287.489 270.025,287.622 278.604,286.559 279.380 C 286.191 279.650,285.825 280.688,285.698 281.824 C 285.556 283.104,285.218 283.984,284.739 284.323 C 284.313 284.624,284.000 285.332,284.000 285.996 C 284.000 286.795,283.756 287.224,283.200 287.400 C 282.760 287.540,282.400 287.974,282.400 288.365 C 282.400 288.756,282.040 289.402,281.600 289.800 C 281.160 290.198,280.800 290.925,280.800 291.415 C 280.800 291.970,280.498 292.386,280.000 292.516 C 279.244 292.714,279.200 293.062,279.200 298.800 C 279.200 304.538,279.244 304.886,280.000 305.084 C 280.440 305.199,280.800 305.534,280.800 305.828 C 280.800 306.539,282.685 308.400,283.404 308.400 C 283.716 308.400,284.158 308.747,284.385 309.171 C 284.689 309.740,285.401 310.007,287.099 310.191 C 288.364 310.327,289.713 310.610,290.095 310.820 C 290.981 311.305,292.285 311.309,292.583 310.828 C 292.709 310.623,293.796 310.333,294.997 310.183 C 296.225 310.030,297.562 309.580,298.052 309.155 C 298.531 308.740,299.255 308.400,299.661 308.400 C 300.068 308.400,300.760 308.040,301.200 307.600 C 301.640 307.160,302.360 306.800,302.800 306.800 C 303.240 306.800,303.960 306.440,304.400 306.000 C 304.840 305.560,305.541 305.200,305.957 305.200 C 306.374 305.200,306.816 304.936,306.940 304.613 C 307.064 304.290,307.803 303.759,308.583 303.433 C 309.362 303.107,310.000 302.652,310.000 302.420 C 310.000 302.189,310.348 302.000,310.773 302.000 C 311.198 302.000,311.660 301.640,311.800 301.200 C 311.940 300.760,312.402 300.400,312.827 300.400 C 313.333 300.400,313.600 300.124,313.600 299.600 C 313.600 299.058,313.867 298.800,314.426 298.800 C 315.590 298.800,316.800 298.079,316.800 297.386 C 316.800 297.064,317.087 296.800,317.437 296.800 C 317.788 296.800,318.169 296.440,318.284 296.000 C 318.399 295.560,318.759 295.200,319.084 295.200 C 319.409 295.200,319.769 294.840,319.884 294.400 C 320.000 293.957,320.430 293.600,320.847 293.600 C 321.333 293.600,321.600 293.317,321.600 292.800 C 321.600 292.348,321.867 292.000,322.213 292.000 C 322.549 292.000,322.941 291.685,323.082 291.300 C 323.224 290.915,323.595 290.447,323.907 290.259 C 324.220 290.072,324.731 289.307,325.043 288.559 C 325.355 287.812,325.878 287.200,326.205 287.200 C 326.533 287.200,326.800 286.841,326.800 286.400 C 326.800 285.950,327.067 285.600,327.410 285.600 C 327.745 285.600,328.182 285.175,328.379 284.655 C 328.577 284.135,329.023 283.600,329.369 283.467 C 329.744 283.323,330.000 282.752,330.000 282.059 C 330.000 281.230,330.231 280.833,330.800 280.684 C 331.260 280.564,331.600 280.138,331.600 279.684 C 331.600 279.230,331.940 278.804,332.400 278.684 C 333.013 278.524,333.200 278.138,333.200 277.037 C 333.200 275.867,333.348 275.600,334.000 275.600 C 334.622 275.600,334.800 275.333,334.800 274.403 C 334.800 273.640,335.090 273.026,335.600 272.707 C 336.040 272.432,336.400 271.918,336.400 271.565 C 336.400 271.212,336.752 270.517,337.181 270.021 C 337.611 269.526,338.080 268.340,338.223 267.387 C 338.366 266.434,338.724 265.561,339.019 265.448 C 339.314 265.335,339.679 264.558,339.829 263.721 C 339.979 262.884,340.354 261.910,340.663 261.555 C 340.972 261.200,341.333 259.940,341.466 258.755 C 341.599 257.570,341.969 256.298,342.289 255.930 C 342.609 255.561,342.972 254.121,343.096 252.730 C 343.221 251.338,343.596 249.778,343.931 249.263 C 344.372 248.585,344.591 246.830,344.724 242.909 C 344.880 238.311,345.021 237.379,345.654 236.746 C 346.821 235.579,346.813 202.433,345.645 202.128 C 344.964 201.950,344.876 201.416,344.736 196.633 C 344.621 192.698,344.419 191.087,343.952 190.368 C 343.606 189.836,343.221 188.269,343.098 186.886 C 342.974 185.503,342.613 183.973,342.295 183.486 C 341.977 182.999,341.592 181.760,341.439 180.733 C 341.286 179.706,340.919 178.665,340.624 178.420 C 340.329 178.175,339.965 177.160,339.815 176.164 C 339.666 175.168,339.304 174.261,339.011 174.149 C 338.718 174.037,338.361 173.318,338.217 172.551 C 338.073 171.785,337.695 171.058,337.376 170.935 C 337.057 170.813,336.684 170.017,336.548 169.168 C 336.385 168.148,336.046 167.542,335.551 167.384 C 335.138 167.253,334.800 166.798,334.800 166.373 C 334.800 165.867,334.524 165.600,334.000 165.600 C 333.333 165.600,333.200 165.333,333.200 164.000 C 333.200 162.667,333.067 162.400,332.400 162.400 C 331.855 162.400,331.600 162.133,331.600 161.563 C 331.600 161.062,331.279 160.641,330.800 160.516 C 330.238 160.369,330.000 159.970,330.000 159.176 C 330.000 158.542,329.681 157.816,329.274 157.523 C 328.874 157.235,328.430 156.685,328.286 156.300 C 328.143 155.915,327.770 155.600,327.459 155.600 C 327.148 155.600,326.799 155.240,326.684 154.800 C 326.569 154.360,326.188 154.000,325.837 154.000 C 325.487 154.000,325.200 153.713,325.200 153.363 C 325.200 153.012,324.846 152.633,324.413 152.519 C 323.981 152.406,323.518 151.973,323.386 151.557 C 323.254 151.141,322.900 150.800,322.600 150.800 C 322.300 150.800,321.946 150.459,321.814 150.043 C 321.682 149.627,321.219 149.194,320.787 149.081 C 320.354 148.967,319.993 148.633,319.985 148.337 C 319.968 147.705,316.787 145.600,315.848 145.600 C 315.467 145.600,315.200 145.271,315.200 144.800 C 315.200 144.303,314.933 144.000,314.496 144.000 C 314.109 144.000,313.568 143.640,313.293 143.200 C 313.018 142.760,312.553 142.400,312.259 142.400 C 311.965 142.400,311.398 142.040,311.000 141.600 C 310.602 141.160,309.854 140.800,309.338 140.800 C 308.822 140.800,308.040 140.440,307.600 140.000 C 307.067 139.467,306.267 139.200,305.200 139.200 C 303.867 139.200,303.600 139.067,303.600 138.400 C 303.600 137.725,303.333 137.600,301.896 137.600 C 300.626 137.600,300.065 137.397,299.693 136.800 C 299.277 136.133,298.760 136.000,296.597 136.000 C 294.094 136.000,294.000 135.964,294.000 135.000 C 294.000 134.267,294.213 134.000,294.800 134.000 C 295.333 134.000,295.600 133.733,295.600 133.200 C 295.600 132.748,295.867 132.400,296.213 132.400 C 296.549 132.400,296.941 132.099,297.082 131.731 C 297.223 131.362,297.668 130.732,298.069 130.331 C 298.471 129.929,298.800 129.171,298.800 128.647 C 298.800 128.030,299.082 127.619,299.600 127.484 C 300.040 127.369,300.400 127.000,300.400 126.664 C 300.400 126.329,300.760 125.940,301.200 125.800 C 301.640 125.660,302.000 125.219,302.000 124.820 C 302.000 124.420,302.360 123.999,302.800 123.884 C 303.240 123.769,303.600 123.388,303.600 123.037 C 303.600 122.687,303.960 122.040,304.400 121.600 C 304.840 121.160,305.200 120.440,305.200 120.000 C 305.200 119.467,305.467 119.200,306.000 119.200 C 306.533 119.200,306.800 118.933,306.800 118.400 C 306.800 117.867,307.067 117.600,307.600 117.600 C 308.124 117.600,308.400 117.333,308.400 116.827 C 308.400 116.402,308.747 115.944,309.172 115.809 C 309.606 115.671,310.058 115.045,310.205 114.379 C 310.348 113.727,310.810 113.009,311.233 112.783 C 311.655 112.557,312.000 112.120,312.000 111.813 C 312.000 111.505,312.360 111.140,312.800 111.000 C 313.240 110.860,313.600 110.419,313.600 110.020 C 313.600 109.620,313.960 109.199,314.400 109.084 C 315.013 108.924,315.200 108.538,315.200 107.437 C 315.200 106.267,315.348 106.000,316.000 106.000 C 316.533 106.000,316.800 105.733,316.800 105.200 C 316.800 104.667,317.067 104.400,317.600 104.400 C 318.133 104.400,318.400 104.133,318.400 103.600 C 318.400 103.067,318.667 102.800,319.200 102.800 C 319.733 102.800,320.000 102.533,320.000 102.000 C 320.000 101.476,320.267 101.200,320.773 101.200 C 321.198 101.200,321.660 100.840,321.800 100.400 C 321.940 99.960,322.312 99.600,322.627 99.600 C 322.942 99.600,323.200 99.336,323.200 99.014 C 323.200 98.692,323.548 98.242,323.973 98.014 C 324.398 97.787,324.860 97.241,325.000 96.800 C 325.140 96.360,325.516 96.000,325.837 96.000 C 326.166 96.000,326.526 95.472,326.663 94.786 C 326.796 94.118,327.242 93.392,327.653 93.172 C 328.064 92.952,328.400 92.418,328.400 91.986 C 328.400 91.467,328.671 91.200,329.200 91.200 C 329.733 91.200,330.000 90.933,330.000 90.400 C 330.000 89.867,330.267 89.600,330.800 89.600 C 331.511 89.600,331.600 89.333,331.600 87.200 C 331.600 85.343,331.779 84.621,332.391 84.009 C 333.229 83.171,333.092 82.000,332.157 82.000 C 331.742 82.000,331.600 81.379,331.600 79.563 C 331.600 77.462,331.490 77.096,330.800 76.916 C 330.305 76.786,330.000 76.370,330.000 75.823 C 330.000 74.846,328.475 73.200,327.570 73.200 C 327.253 73.200,326.768 72.840,326.493 72.400 C 326.181 71.901,325.560 71.600,324.843 71.600 C 324.030 71.600,323.632 71.366,323.484 70.800 C 323.359 70.321,322.938 70.000,322.437 70.000 C 321.867 70.000,321.600 69.745,321.600 69.200 C 321.600 68.578,321.333 68.400,320.403 68.400 C 319.640 68.400,319.026 68.110,318.707 67.600 C 318.432 67.160,317.912 66.800,317.550 66.800 C 317.189 66.800,316.799 66.440,316.684 66.000 C 316.569 65.560,316.188 65.200,315.837 65.200 C 315.487 65.200,314.840 64.840,314.400 64.400 C 313.960 63.960,313.252 63.600,312.827 63.600 C 312.402 63.600,311.940 63.240,311.800 62.800 C 311.660 62.360,311.316 62.000,311.035 62.000 C 310.754 62.000,310.001 61.550,309.362 61.000 C 308.723 60.451,307.885 60.001,307.500 60.000 C 307.115 60.000,306.800 59.811,306.800 59.580 C 306.800 59.348,306.201 58.909,305.468 58.603 C 304.736 58.297,303.904 57.766,303.619 57.423 C 303.335 57.080,302.792 56.800,302.413 56.800 C 302.034 56.800,301.398 56.440,301.000 56.000 C 300.602 55.560,299.882 55.200,299.400 55.200 C 298.918 55.200,298.198 54.840,297.800 54.400 C 297.288 53.834,296.568 53.600,295.338 53.600 C 293.867 53.600,293.600 53.477,293.600 52.800 C 293.600 52.057,293.333 52.000,289.827 52.000 C 286.405 52.000,286.030 52.074,285.800 52.800 M292.533 63.906 C 293.450 64.497,294.830 65.291,295.600 65.672 C 296.370 66.052,297.720 66.890,298.600 67.534 C 299.480 68.177,301.605 69.581,303.323 70.652 C 306.668 72.738,308.463 73.902,311.247 75.788 C 312.211 76.442,314.514 77.882,316.364 78.988 C 322.002 82.361,322.296 83.455,318.630 87.425 C 317.425 88.731,315.718 90.610,314.837 91.600 C 313.957 92.590,312.508 94.194,311.618 95.164 C 310.728 96.134,310.000 97.059,310.000 97.219 C 310.000 97.379,309.230 98.296,308.289 99.255 C 306.267 101.317,299.579 109.576,295.841 114.628 C 294.387 116.593,292.968 118.470,292.686 118.800 C 292.405 119.130,291.643 120.210,290.994 121.200 C 290.344 122.190,289.090 123.920,288.207 125.045 C 287.323 126.169,285.790 128.375,284.800 129.946 C 283.810 131.517,281.613 134.929,279.918 137.527 C 276.819 142.278,276.296 143.998,277.947 144.002 C 281.210 144.010,290.032 144.962,290.918 145.401 C 291.532 145.707,292.882 146.077,293.918 146.224 C 294.953 146.371,296.430 146.764,297.200 147.097 C 301.122 148.790,305.418 151.040,306.312 151.869 C 306.865 152.381,307.487 152.800,307.695 152.800 C 310.140 152.800,326.000 170.331,326.000 173.033 C 326.000 173.129,326.890 175.052,327.979 177.304 C 329.067 179.557,330.353 182.840,330.838 184.600 C 331.322 186.360,331.974 188.394,332.287 189.120 C 332.601 189.847,332.959 191.107,333.084 191.920 C 333.209 192.734,333.477 193.612,333.681 193.871 C 333.884 194.130,334.307 196.380,334.620 198.871 C 334.934 201.362,335.459 204.930,335.787 206.800 C 336.615 211.514,336.595 228.138,335.756 232.600 C 335.426 234.360,335.072 236.520,334.971 237.400 C 334.510 241.404,333.891 245.034,333.608 245.400 C 333.438 245.620,333.178 246.802,333.030 248.027 C 332.882 249.252,332.516 250.725,332.218 251.300 C 331.920 251.875,331.550 252.943,331.396 253.673 C 330.937 255.852,329.637 259.666,328.627 261.800 C 326.213 266.899,325.560 268.242,325.221 268.800 C 325.021 269.130,324.473 270.243,324.005 271.274 C 323.537 272.305,322.626 273.835,321.982 274.674 C 320.410 276.720,320.400 276.733,318.813 278.996 C 317.398 281.014,313.960 284.870,311.800 286.862 C 309.788 288.718,306.180 291.770,305.367 292.303 C 293.017 300.404,287.228 301.712,291.373 295.467 C 292.158 294.284,292.800 293.135,292.800 292.913 C 292.800 292.690,293.136 292.079,293.546 291.554 C 297.778 286.146,298.834 272.076,295.734 262.400 C 295.417 261.410,294.923 259.790,294.635 258.800 C 294.134 257.071,293.059 255.068,290.562 251.200 C 286.714 245.241,279.367 239.858,271.644 237.336 C 266.852 235.772,257.505 234.221,254.575 234.503 C 250.481 234.897,244.854 235.990,242.849 236.781 C 241.706 237.231,240.496 237.600,240.160 237.600 C 239.824 237.600,238.565 238.050,237.363 238.600 C 236.160 239.150,235.082 239.600,234.967 239.600 C 234.852 239.600,233.486 240.455,231.932 241.500 C 230.378 242.545,228.709 243.620,228.223 243.888 C 226.704 244.728,219.983 251.944,219.383 253.378 C 219.069 254.130,218.640 254.851,218.431 254.981 C 215.142 257.014,211.871 268.692,211.871 278.400 C 211.871 291.415,214.437 298.356,222.000 305.788 C 225.565 309.292,226.792 310.227,231.000 312.646 C 234.418 314.611,243.118 317.011,248.084 317.358 C 253.570 317.742,255.776 319.642,252.100 320.817 C 251.275 321.081,250.060 321.613,249.400 321.999 C 248.147 322.732,240.338 324.800,238.822 324.800 C 238.341 324.800,237.587 324.993,237.147 325.228 C 236.194 325.738,224.660 327.488,219.000 327.982 C 206.861 329.041,168.323 328.786,161.000 327.598 C 159.680 327.384,155.863 326.927,152.517 326.583 C 149.171 326.239,145.481 325.793,144.317 325.593 C 143.153 325.392,140.220 324.950,137.800 324.611 C 135.380 324.271,132.410 323.738,131.200 323.427 C 129.990 323.115,128.010 322.734,126.800 322.580 C 125.590 322.426,124.150 322.125,123.600 321.911 C 122.303 321.406,115.519 319.765,113.200 319.396 C 112.210 319.239,111.220 318.981,111.000 318.825 C 110.780 318.668,109.790 318.317,108.800 318.045 C 107.810 317.772,106.449 317.299,105.777 316.992 C 105.104 316.686,103.574 316.266,102.377 316.059 C 101.179 315.852,99.570 315.463,98.800 315.194 C 94.234 313.598,92.826 313.070,91.289 312.374 C 90.348 311.948,89.290 311.600,88.937 311.600 C 88.583 311.600,87.733 311.262,87.047 310.849 C 86.361 310.435,85.160 309.984,84.378 309.845 C 83.595 309.706,82.252 309.234,81.393 308.796 C 80.534 308.358,79.432 308.000,78.944 308.000 C 78.456 308.000,77.787 307.730,77.457 307.400 C 77.127 307.070,76.619 306.799,76.329 306.799 C 76.038 306.798,75.245 306.459,74.567 306.045 C 73.888 305.631,72.776 305.170,72.094 305.021 C 71.413 304.871,70.650 304.502,70.400 304.200 C 70.150 303.898,69.430 303.538,68.800 303.400 C 68.170 303.262,67.452 302.904,67.205 302.606 C 66.957 302.307,66.055 301.944,65.200 301.800 C 62.465 301.338,61.989 299.637,63.801 296.800 C 65.382 294.323,70.337 284.285,73.376 277.400 C 73.861 276.300,74.560 274.719,74.929 273.886 C 75.298 273.054,75.600 272.189,75.600 271.964 C 75.600 271.740,75.940 270.801,76.355 269.878 C 77.890 266.467,78.768 264.059,80.614 258.200 C 81.654 254.900,82.736 251.475,83.018 250.588 C 83.300 249.702,83.660 248.262,83.818 247.388 C 83.975 246.515,84.268 245.593,84.468 245.340 C 84.668 245.087,85.012 243.758,85.233 242.387 C 85.454 241.015,85.875 239.422,86.170 238.847 C 86.464 238.271,86.903 236.309,87.146 234.486 C 87.388 232.664,87.751 230.864,87.952 230.486 C 88.152 230.109,88.446 228.360,88.605 226.600 C 88.764 224.840,89.146 222.680,89.455 221.800 C 89.764 220.920,90.121 218.670,90.250 216.800 C 90.378 214.930,90.732 212.519,91.037 211.443 C 91.341 210.366,91.695 208.026,91.823 206.243 C 91.951 204.459,92.302 202.280,92.605 201.400 C 92.907 200.520,93.362 198.001,93.616 195.802 C 93.870 193.602,94.236 191.506,94.430 191.144 C 94.624 190.781,94.899 189.430,95.041 188.142 C 95.183 186.854,95.531 185.260,95.814 184.600 C 96.097 183.940,96.539 182.140,96.795 180.600 C 97.052 179.060,97.440 177.329,97.658 176.752 C 97.875 176.176,98.297 174.646,98.594 173.352 C 99.051 171.365,102.872 160.031,104.915 154.600 C 105.828 152.174,111.470 141.206,112.247 140.348 C 112.622 139.934,113.125 139.262,113.364 138.855 C 114.300 137.265,117.036 133.390,117.700 132.713 C 118.085 132.321,118.400 131.797,118.400 131.550 C 118.400 130.737,130.940 118.353,133.600 116.538 C 135.030 115.563,137.036 114.155,138.057 113.409 C 139.079 112.664,140.879 111.536,142.057 110.903 C 143.236 110.270,144.974 109.260,145.919 108.659 C 146.865 108.057,148.081 107.397,148.621 107.192 C 149.161 106.987,150.402 106.455,151.379 106.009 C 152.357 105.564,153.370 105.200,153.631 105.200 C 153.892 105.200,154.667 104.854,155.353 104.430 C 156.695 103.602,163.603 101.200,164.644 101.200 C 164.991 101.200,166.474 100.862,167.938 100.448 C 172.886 99.050,176.185 98.446,180.175 98.209 C 182.361 98.080,184.372 97.789,184.644 97.563 C 185.921 96.504,206.164 97.731,214.600 99.379 C 224.904 101.392,237.371 106.232,244.000 110.794 C 244.330 111.021,245.562 111.821,246.738 112.572 C 251.119 115.370,257.634 121.608,259.453 124.747 C 260.044 125.766,260.949 127.109,261.464 127.731 C 261.979 128.353,262.400 129.090,262.400 129.369 C 262.400 129.649,262.653 130.400,262.962 131.039 C 263.271 131.677,263.900 133.044,264.361 134.076 C 265.424 136.457,265.801 136.674,266.503 135.304 C 266.815 134.697,267.616 133.203,268.285 131.984 C 268.953 130.765,269.624 129.202,269.776 128.511 C 269.927 127.821,270.310 127.041,270.626 126.779 C 270.942 126.517,271.200 125.988,271.200 125.605 C 271.200 125.222,271.562 124.448,272.004 123.886 C 272.445 123.325,272.923 122.265,273.064 121.532 C 273.206 120.800,273.564 119.845,273.861 119.411 C 274.157 118.977,274.400 118.295,274.400 117.895 C 274.400 117.495,274.736 116.500,275.146 115.684 C 275.556 114.868,276.114 113.254,276.386 112.099 C 276.658 110.943,277.027 109.907,277.205 109.797 C 277.384 109.686,277.656 108.832,277.810 107.898 C 277.964 106.964,278.273 105.973,278.497 105.696 C 278.995 105.080,280.257 100.768,281.032 97.037 C 281.348 95.518,281.760 94.078,281.948 93.837 C 282.136 93.597,282.405 92.500,282.546 91.400 C 282.687 90.300,283.058 88.590,283.371 87.600 C 283.683 86.610,284.244 84.180,284.616 82.200 C 285.921 75.259,286.775 70.569,287.373 67.056 C 288.246 61.920,288.865 61.542,292.533 63.906 " stroke="none" fill="#f3f3f3" fill-rule="evenodd"></path><path id="path1" d="M289.693 65.479 C 289.160 66.236,288.755 67.835,288.449 70.400 C 288.200 72.490,287.735 74.920,287.416 75.800 C 287.096 76.680,286.827 78.393,286.818 79.606 C 286.806 81.019,286.513 82.348,286.000 83.304 C 285.558 84.129,285.200 85.561,285.200 86.504 C 285.200 87.444,284.867 88.839,284.461 89.606 C 284.054 90.373,283.609 92.236,283.472 93.746 C 283.334 95.256,283.035 96.717,282.807 96.991 C 282.580 97.266,282.199 98.542,281.961 99.828 C 281.723 101.114,281.275 102.529,280.964 102.972 C 280.654 103.415,280.400 104.236,280.400 104.795 C 280.400 105.354,280.040 106.484,279.600 107.304 C 279.160 108.125,278.799 109.203,278.799 109.699 C 278.798 110.194,278.465 111.144,278.060 111.808 C 277.655 112.473,277.192 113.733,277.032 114.608 C 276.872 115.484,276.511 116.560,276.231 117.000 C 275.950 117.440,275.587 118.520,275.424 119.400 C 275.260 120.280,274.881 121.450,274.582 122.000 C 273.553 123.886,270.800 129.858,270.787 130.229 C 270.715 132.378,266.234 138.800,264.808 138.800 C 263.548 138.800,263.427 138.579,263.009 135.500 C 262.867 134.455,262.589 133.600,262.391 133.600 C 262.193 133.600,261.827 132.841,261.577 131.914 C 261.327 130.987,260.780 129.793,260.361 129.260 C 259.943 128.728,259.600 128.129,259.600 127.930 C 259.600 127.135,255.235 121.545,253.411 120.004 C 252.756 119.452,251.943 118.730,251.602 118.400 C 250.091 116.937,246.485 114.000,246.198 114.000 C 246.025 114.000,244.874 113.330,243.641 112.510 C 240.751 110.589,231.814 106.067,230.000 105.608 C 227.710 105.029,224.700 103.954,223.121 103.152 C 222.307 102.738,221.206 102.400,220.673 102.400 C 220.140 102.400,218.577 102.040,217.200 101.600 C 215.823 101.160,213.913 100.800,212.956 100.800 C 211.999 100.800,210.448 100.485,209.508 100.100 C 207.339 99.211,180.059 99.025,178.360 99.888 C 177.832 100.156,175.744 100.551,173.720 100.765 C 171.696 100.980,169.626 101.414,169.120 101.731 C 168.614 102.047,167.146 102.406,165.859 102.528 C 164.571 102.651,163.207 103.032,162.827 103.375 C 162.448 103.719,161.699 104.000,161.163 104.000 C 160.627 104.000,159.561 104.336,158.794 104.747 C 158.027 105.157,156.815 105.622,156.100 105.778 C 155.385 105.935,154.800 106.226,154.800 106.424 C 154.800 106.622,154.305 106.902,153.700 107.046 C 153.095 107.189,151.700 107.710,150.600 108.202 C 149.500 108.695,148.330 109.213,148.000 109.354 C 147.670 109.494,146.860 109.968,146.200 110.407 C 145.540 110.846,144.280 111.582,143.400 112.044 C 139.993 113.828,139.241 114.299,137.202 115.923 C 136.044 116.845,134.849 117.600,134.548 117.600 C 134.246 117.600,134.000 117.786,134.000 118.013 C 134.000 118.239,133.685 118.546,133.301 118.693 C 132.253 119.095,119.689 131.908,119.075 133.200 C 118.918 133.530,117.460 135.690,115.836 138.000 C 112.353 142.953,105.600 156.073,105.600 157.886 C 105.600 158.291,105.345 158.986,105.033 159.431 C 104.721 159.877,104.333 160.948,104.171 161.812 C 104.009 162.677,103.545 163.927,103.140 164.592 C 102.735 165.256,102.401 166.250,102.399 166.800 C 102.397 167.350,102.037 168.340,101.600 169.000 C 101.163 169.660,100.804 170.743,100.803 171.406 C 100.801 172.069,100.467 173.239,100.060 174.006 C 99.654 174.773,99.217 176.430,99.090 177.690 C 98.964 178.949,98.576 180.384,98.230 180.879 C 97.883 181.373,97.592 182.503,97.582 183.389 C 97.565 184.984,96.844 188.215,96.327 189.014 C 96.180 189.242,95.940 190.592,95.794 192.014 C 95.648 193.436,95.287 195.320,94.992 196.200 C 94.698 197.080,94.357 199.183,94.236 200.874 C 94.114 202.564,93.757 204.634,93.441 205.474 C 93.126 206.313,92.756 208.797,92.619 210.992 C 92.467 213.437,92.144 215.331,91.785 215.878 C 91.463 216.370,91.194 217.633,91.188 218.686 C 91.170 221.355,90.479 226.418,90.059 226.954 C 89.866 227.199,89.595 228.681,89.457 230.248 C 89.318 231.814,88.942 233.974,88.622 235.048 C 88.301 236.121,87.555 239.234,86.962 241.964 C 86.370 244.695,85.643 247.395,85.345 247.964 C 85.048 248.534,84.804 249.396,84.802 249.880 C 84.799 250.945,82.553 258.177,81.764 259.662 C 81.454 260.246,81.196 261.056,81.192 261.462 C 81.181 262.483,78.888 268.898,78.434 269.179 C 78.230 269.305,77.939 269.946,77.786 270.604 C 77.347 272.500,75.480 277.200,75.165 277.200 C 75.008 277.200,74.664 278.100,74.400 279.200 C 74.136 280.300,73.765 281.200,73.576 281.200 C 73.386 281.200,73.043 281.899,72.813 282.753 C 72.582 283.608,72.137 284.520,71.823 284.781 C 71.509 285.042,71.138 285.770,71.000 286.400 C 70.862 287.030,70.490 287.759,70.174 288.021 C 69.858 288.283,69.600 288.796,69.600 289.160 C 69.600 289.524,69.286 290.267,68.901 290.811 C 68.517 291.355,67.654 292.880,66.984 294.200 C 66.313 295.520,65.454 297.070,65.073 297.644 C 63.928 299.372,66.602 301.678,70.828 302.606 C 71.502 302.754,72.147 303.117,72.260 303.413 C 72.374 303.709,73.037 304.076,73.733 304.229 C 74.430 304.382,75.627 304.843,76.394 305.253 C 77.161 305.664,78.016 306.000,78.296 306.000 C 78.575 306.000,79.475 306.360,80.296 306.800 C 81.116 307.240,82.066 307.600,82.405 307.600 C 82.744 307.600,83.386 307.855,83.831 308.167 C 84.277 308.479,85.352 308.859,86.220 309.012 C 87.089 309.165,88.160 309.505,88.600 309.768 C 89.040 310.030,90.165 310.467,91.100 310.739 C 92.035 311.010,92.800 311.389,92.800 311.581 C 92.800 311.773,93.565 312.050,94.500 312.196 C 95.435 312.343,97.280 312.798,98.600 313.208 C 99.920 313.617,102.620 314.426,104.600 315.005 C 106.580 315.584,108.775 316.308,109.479 316.613 C 110.182 316.917,111.712 317.289,112.879 317.438 C 114.045 317.587,115.450 317.929,116.000 318.198 C 116.550 318.468,117.945 318.795,119.100 318.925 C 120.255 319.056,121.785 319.430,122.500 319.757 C 123.215 320.084,125.060 320.471,126.600 320.617 C 128.140 320.762,129.937 321.141,130.593 321.457 C 131.250 321.773,132.870 322.130,134.193 322.250 C 135.517 322.370,138.262 322.813,140.293 323.234 C 142.324 323.655,144.844 324.007,145.893 324.015 C 146.942 324.023,149.060 324.308,150.600 324.649 C 164.166 327.651,218.223 327.749,230.213 324.792 C 231.980 324.357,233.982 324.000,234.663 324.000 C 235.343 324.000,236.597 323.754,237.450 323.453 C 238.303 323.152,240.321 322.683,241.936 322.411 C 243.550 322.139,245.334 321.676,245.899 321.382 C 246.465 321.089,247.636 320.729,248.502 320.583 C 249.368 320.436,249.924 320.180,249.738 320.012 C 249.269 319.588,242.444 317.999,241.099 317.999 C 240.493 318.000,239.325 317.640,238.504 317.200 C 237.684 316.760,236.604 316.400,236.104 316.400 C 235.605 316.400,234.525 316.040,233.704 315.600 C 232.884 315.160,231.916 314.800,231.555 314.800 C 231.194 314.800,230.685 314.543,230.424 314.229 C 230.163 313.915,229.052 313.188,227.954 312.614 C 225.950 311.566,224.500 310.357,220.667 306.542 C 217.381 303.270,215.594 301.078,215.334 300.000 C 215.201 299.450,214.872 298.730,214.603 298.400 C 213.659 297.244,212.000 293.091,211.986 291.852 C 211.979 291.163,211.625 289.880,211.200 289.000 C 210.018 286.554,210.012 270.543,211.191 267.944 C 211.626 266.985,211.986 265.655,211.991 264.989 C 211.996 264.323,212.293 263.359,212.652 262.847 C 213.010 262.335,213.456 261.240,213.641 260.414 C 214.416 256.968,222.024 246.914,226.235 243.772 C 227.096 243.130,227.890 242.507,228.000 242.388 C 228.252 242.116,232.735 239.081,233.346 238.768 C 233.596 238.641,234.556 238.146,235.479 237.668 C 236.403 237.191,237.485 236.800,237.885 236.800 C 238.285 236.800,239.239 236.466,240.006 236.059 C 240.773 235.651,242.101 235.188,242.958 235.030 C 243.816 234.871,244.896 234.497,245.358 234.198 C 247.450 232.848,265.526 233.131,268.200 234.556 C 268.860 234.907,269.850 235.197,270.400 235.200 C 270.950 235.203,271.940 235.563,272.600 236.000 C 273.260 236.437,274.267 236.796,274.838 236.797 C 275.409 236.799,276.202 237.160,276.600 237.600 C 276.998 238.040,277.748 238.400,278.266 238.400 C 278.784 238.400,279.516 238.760,279.893 239.200 C 280.270 239.640,280.710 240.000,280.871 240.000 C 282.191 240.000,291.439 248.672,291.856 250.300 C 291.983 250.795,292.234 251.200,292.414 251.200 C 293.078 251.200,295.713 256.683,297.146 261.045 C 300.383 270.901,299.580 285.832,295.527 291.154 C 295.127 291.679,294.800 292.355,294.800 292.658 C 294.800 292.961,294.170 294.105,293.400 295.200 C 292.630 296.295,292.000 297.284,292.000 297.396 C 292.000 297.951,293.966 297.500,294.600 296.800 C 294.998 296.360,295.632 296.000,296.008 296.000 C 296.384 296.000,297.150 295.640,297.709 295.200 C 298.269 294.760,298.868 294.400,299.042 294.400 C 299.363 294.400,302.437 292.402,302.800 291.957 C 302.910 291.822,303.540 291.434,304.200 291.096 C 304.860 290.757,306.030 289.872,306.800 289.129 C 307.570 288.387,308.830 287.339,309.600 286.800 C 310.370 286.262,311.360 285.368,311.800 284.813 C 312.240 284.259,313.276 283.084,314.103 282.202 C 315.952 280.230,319.838 275.073,320.633 273.535 C 320.956 272.911,321.396 272.400,321.610 272.400 C 321.825 272.400,322.000 272.209,322.000 271.975 C 322.000 271.371,324.037 267.181,324.875 266.059 C 325.262 265.542,325.693 264.514,325.831 263.774 C 325.970 263.034,326.335 262.220,326.642 261.965 C 326.949 261.710,327.200 261.188,327.200 260.805 C 327.200 260.422,327.534 259.679,327.942 259.154 C 328.350 258.629,328.808 257.480,328.958 256.600 C 329.109 255.720,329.481 254.460,329.785 253.800 C 330.088 253.140,330.561 251.520,330.836 250.200 C 331.110 248.880,331.490 247.594,331.681 247.342 C 331.872 247.091,332.128 245.921,332.250 244.742 C 332.372 243.564,332.718 241.790,333.019 240.800 C 334.864 234.731,334.823 202.036,332.967 198.477 C 332.658 197.885,332.404 196.583,332.402 195.585 C 332.401 194.555,332.050 193.083,331.590 192.185 C 331.145 191.313,330.674 189.880,330.543 189.000 C 330.412 188.120,330.084 187.040,329.813 186.600 C 329.542 186.160,329.191 185.101,329.032 184.246 C 328.873 183.391,328.396 182.044,327.972 181.252 C 327.547 180.460,327.200 179.568,327.200 179.269 C 327.200 178.970,326.840 178.269,326.400 177.709 C 325.960 177.150,325.600 176.294,325.600 175.808 C 325.600 175.322,325.240 174.598,324.800 174.200 C 324.360 173.802,324.000 173.269,324.000 173.016 C 324.000 172.763,323.595 171.997,323.100 171.315 C 321.943 169.721,321.530 169.110,319.637 166.200 C 317.842 163.439,314.305 159.722,310.699 156.807 C 309.325 155.696,307.915 154.520,307.566 154.193 C 307.218 153.867,306.768 153.600,306.566 153.599 C 306.365 153.599,305.163 152.879,303.896 151.999 C 302.628 151.120,301.368 150.399,301.096 150.399 C 300.823 150.398,300.011 150.038,299.290 149.599 C 298.570 149.159,297.632 148.800,297.205 148.800 C 296.779 148.800,295.568 148.462,294.515 148.048 C 293.462 147.635,291.610 147.170,290.400 147.015 C 289.190 146.860,287.570 146.564,286.800 146.357 C 286.030 146.149,283.169 145.849,280.442 145.690 C 274.516 145.343,274.123 145.071,275.517 142.280 C 276.003 141.308,276.400 140.405,276.400 140.274 C 276.400 139.955,278.365 137.073,278.762 136.809 C 279.102 136.583,279.979 135.032,281.031 132.800 C 281.393 132.030,281.805 131.310,281.946 131.200 C 282.402 130.844,284.400 127.767,284.400 127.422 C 284.400 127.237,285.177 126.167,286.126 125.043 C 287.076 123.919,288.897 121.470,290.173 119.600 C 291.448 117.730,292.922 115.740,293.446 115.178 C 293.971 114.616,294.400 114.023,294.400 113.860 C 294.400 113.592,298.923 107.845,300.271 106.400 C 302.097 104.443,303.989 102.159,303.994 101.906 C 303.997 101.744,305.035 100.512,306.300 99.167 C 307.565 97.823,308.737 96.483,308.904 96.190 C 309.071 95.897,309.881 94.933,310.704 94.049 C 311.527 93.164,312.871 91.666,313.692 90.720 C 314.513 89.774,316.088 87.993,317.192 86.761 C 320.114 83.503,319.791 82.443,315.200 80.231 C 313.020 79.180,312.455 78.805,308.678 75.900 C 307.606 75.075,306.572 74.400,306.382 74.400 C 306.014 74.400,303.398 72.755,302.415 71.906 C 301.774 71.352,301.191 70.984,299.152 69.844 C 298.409 69.428,297.710 68.978,297.600 68.843 C 297.222 68.379,294.199 66.444,293.200 66.026 C 292.650 65.796,291.814 65.327,291.342 64.983 C 290.535 64.396,290.437 64.425,289.693 65.479 " stroke="none" fill="#040404" fill-rule="evenodd"></path><path id="path2" d="M289.528 63.870 C 288.900 64.036,287.993 66.923,288.004 68.720 C 288.010 69.627,286.488 77.936,285.718 81.200 C 285.381 82.630,284.977 84.610,284.822 85.600 C 284.666 86.590,284.248 88.300,283.893 89.400 C 283.538 90.500,283.067 92.300,282.847 93.400 C 282.258 96.339,281.203 100.400,280.613 102.000 C 280.087 103.425,277.928 109.936,276.899 113.200 C 275.503 117.627,273.612 122.409,271.958 125.696 C 271.101 127.399,270.394 129.019,270.387 129.296 C 270.381 129.573,269.872 130.790,269.258 132.000 C 265.973 138.469,264.301 139.581,263.622 135.751 C 262.864 131.473,258.959 124.593,255.099 120.739 C 250.609 116.254,242.007 109.914,238.838 108.753 C 238.267 108.544,236.794 107.844,235.565 107.198 C 234.336 106.551,231.276 105.320,228.765 104.461 C 226.254 103.602,223.750 102.718,223.200 102.496 C 221.265 101.714,217.777 100.836,215.600 100.583 C 214.390 100.442,212.050 99.950,210.400 99.491 C 206.103 98.294,183.056 98.191,177.400 99.344 C 175.420 99.748,172.807 100.232,171.592 100.421 C 170.378 100.609,168.719 101.042,167.905 101.382 C 167.092 101.722,165.914 102.000,165.289 102.000 C 163.068 102.000,149.026 107.660,145.400 110.018 C 144.520 110.590,142.540 111.753,141.000 112.603 C 139.460 113.453,137.933 114.414,137.607 114.738 C 137.281 115.063,136.021 115.960,134.807 116.731 C 132.286 118.332,120.986 129.293,119.314 131.760 C 118.703 132.662,118.096 133.490,117.967 133.600 C 117.837 133.710,117.076 134.790,116.275 136.000 C 115.474 137.210,114.099 139.262,113.220 140.560 C 108.702 147.236,99.985 168.985,98.390 177.565 C 98.072 179.278,97.891 180.052,96.772 184.500 C 96.537 185.435,96.000 188.058,95.578 190.330 C 95.156 192.601,94.711 194.621,94.589 194.819 C 94.466 195.016,94.190 196.732,93.974 198.632 C 93.758 200.533,93.420 202.389,93.222 202.759 C 93.025 203.128,92.665 205.223,92.424 207.415 C 92.182 209.607,91.724 212.750,91.404 214.400 C 91.085 216.050,90.651 218.840,90.440 220.600 C 89.839 225.601,88.292 233.602,86.378 241.600 C 86.141 242.590,85.673 244.210,85.338 245.200 C 85.002 246.190,84.494 248.080,84.208 249.400 C 83.922 250.720,82.678 254.859,81.444 258.597 C 80.210 262.335,79.200 265.578,79.200 265.803 C 79.200 266.028,78.814 266.929,78.343 267.806 C 77.872 268.683,76.973 270.914,76.347 272.765 C 75.720 274.615,74.960 276.415,74.657 276.765 C 74.355 277.114,73.992 277.885,73.852 278.478 C 73.645 279.347,67.724 291.690,66.405 294.000 C 66.216 294.330,65.492 295.574,64.796 296.763 C 63.335 299.258,63.548 300.578,65.486 301.047 C 66.099 301.195,67.050 301.628,67.600 302.009 C 68.150 302.389,69.173 302.824,69.872 302.976 C 70.572 303.127,71.359 303.510,71.621 303.826 C 71.883 304.142,72.271 304.400,72.482 304.400 C 72.693 304.400,74.156 304.970,75.733 305.666 C 79.005 307.111,82.971 308.603,85.600 309.376 C 86.590 309.668,87.940 310.196,88.600 310.551 C 89.260 310.905,90.075 311.196,90.411 311.198 C 90.747 311.199,91.377 311.445,91.811 311.744 C 92.673 312.339,97.854 313.993,103.200 315.380 C 105.070 315.865,106.960 316.451,107.400 316.682 C 107.840 316.913,110.630 317.678,113.600 318.383 C 116.570 319.087,119.955 319.931,121.123 320.259 C 122.291 320.587,124.091 321.013,125.123 321.206 C 126.155 321.399,127.900 321.758,129.000 322.004 C 138.359 324.097,158.619 326.630,172.000 327.381 C 175.740 327.591,214.281 327.621,214.828 327.414 C 215.143 327.295,217.380 327.021,219.800 326.804 C 226.864 326.170,231.266 325.623,232.578 325.216 C 233.645 324.885,236.714 324.227,244.175 322.732 C 246.484 322.270,251.200 320.448,251.200 320.019 C 251.200 319.130,249.426 318.481,245.800 318.041 C 239.990 317.338,233.849 315.307,229.009 312.489 C 224.928 310.114,217.423 302.783,216.019 299.800 C 215.501 298.700,214.863 297.530,214.602 297.200 C 210.459 291.960,209.690 270.055,213.400 262.942 C 213.727 262.314,213.996 261.566,213.998 261.280 C 214.010 258.579,223.368 246.325,227.600 243.466 C 228.150 243.095,229.918 241.893,231.529 240.796 C 233.141 239.698,234.581 238.799,234.729 238.798 C 234.878 238.796,235.540 238.509,236.200 238.158 C 236.860 237.808,238.210 237.283,239.200 236.991 C 240.190 236.699,242.080 236.110,243.400 235.680 C 252.080 232.858,261.475 233.066,271.400 236.299 C 273.820 237.088,276.084 237.973,276.431 238.266 C 276.779 238.560,277.306 238.800,277.602 238.800 C 279.717 238.800,289.021 247.082,291.818 251.455 C 300.538 265.087,300.591 285.247,291.935 296.082 C 288.587 300.273,296.976 297.267,304.875 291.445 C 315.346 283.727,321.145 276.110,327.782 261.358 C 328.782 259.135,329.600 257.011,329.600 256.638 C 329.600 256.265,329.846 255.474,330.147 254.880 C 330.447 254.286,330.823 253.080,330.982 252.200 C 331.141 251.320,331.416 250.420,331.593 250.200 C 332.054 249.628,333.583 242.006,334.042 238.000 C 334.255 236.130,334.616 233.430,334.844 232.000 C 336.254 223.137,334.123 194.326,331.781 190.600 C 331.505 190.160,331.156 189.170,331.006 188.400 C 330.379 185.175,327.501 177.707,325.550 174.245 C 325.316 173.830,324.760 172.840,324.314 172.045 C 320.560 165.350,309.410 153.200,307.020 153.200 C 306.921 153.200,306.007 152.638,304.989 151.950 C 302.883 150.529,298.633 148.401,297.894 148.398 C 297.622 148.396,296.898 148.133,296.283 147.813 C 295.669 147.492,294.319 147.052,293.283 146.834 C 292.248 146.616,290.590 146.239,289.600 145.997 C 288.610 145.754,285.460 145.384,282.600 145.175 C 275.774 144.674,275.485 144.602,275.825 143.487 C 276.229 142.165,277.109 140.332,277.899 139.168 C 279.151 137.324,280.962 134.442,282.800 131.368 C 283.790 129.713,285.477 127.243,286.549 125.879 C 287.622 124.516,288.952 122.680,289.506 121.800 C 291.987 117.857,303.916 102.663,307.799 98.500 C 308.569 97.675,310.812 95.110,312.784 92.800 C 314.755 90.490,317.128 87.770,318.055 86.755 C 321.086 83.438,320.768 82.542,315.514 79.590 C 313.816 78.637,311.296 76.995,309.914 75.943 C 308.531 74.890,307.256 74.023,307.079 74.015 C 306.803 74.002,305.514 73.194,299.200 69.078 C 298.650 68.720,297.429 67.880,296.486 67.213 C 295.543 66.546,294.643 65.999,294.486 65.998 C 294.329 65.997,293.390 65.458,292.400 64.800 C 291.410 64.142,290.510 63.624,290.400 63.648 C 290.290 63.673,289.898 63.773,289.528 63.870 M293.200 66.026 C 294.199 66.444,297.222 68.379,297.600 68.843 C 297.710 68.978,298.409 69.428,299.152 69.844 C 301.191 70.984,301.774 71.352,302.415 71.906 C 303.398 72.755,306.014 74.400,306.382 74.400 C 306.572 74.400,307.606 75.075,308.678 75.900 C 312.455 78.805,313.020 79.180,315.200 80.231 C 319.791 82.443,320.114 83.503,317.192 86.761 C 316.088 87.993,314.513 89.774,313.692 90.720 C 312.871 91.666,311.527 93.164,310.704 94.049 C 309.881 94.933,309.071 95.897,308.904 96.190 C 308.737 96.483,307.565 97.823,306.300 99.167 C 305.035 100.512,303.997 101.744,303.994 101.906 C 303.989 102.159,302.097 104.443,300.271 106.400 C 298.923 107.845,294.400 113.592,294.400 113.860 C 294.400 114.023,293.971 114.616,293.446 115.178 C 292.922 115.740,291.448 117.730,290.173 119.600 C 288.897 121.470,287.076 123.919,286.126 125.043 C 285.177 126.167,284.400 127.237,284.400 127.422 C 284.400 127.767,282.402 130.844,281.946 131.200 C 281.805 131.310,281.393 132.030,281.031 132.800 C 279.979 135.032,279.102 136.583,278.762 136.809 C 278.365 137.073,276.400 139.955,276.400 140.274 C 276.400 140.405,276.003 141.308,275.517 142.280 C 274.123 145.071,274.516 145.343,280.442 145.690 C 283.169 145.849,286.030 146.149,286.800 146.357 C 287.570 146.564,289.190 146.860,290.400 147.015 C 291.610 147.170,293.462 147.635,294.515 148.048 C 295.568 148.462,296.779 148.800,297.205 148.800 C 297.632 148.800,298.570 149.159,299.290 149.599 C 300.011 150.038,300.823 150.398,301.096 150.399 C 301.368 150.399,302.628 151.120,303.896 151.999 C 305.163 152.879,306.365 153.599,306.566 153.599 C 306.768 153.600,307.218 153.867,307.566 154.193 C 307.915 154.520,309.325 155.696,310.699 156.807 C 314.305 159.722,317.842 163.439,319.637 166.200 C 321.530 169.110,321.943 169.721,323.100 171.315 C 323.595 171.997,324.000 172.763,324.000 173.016 C 324.000 173.269,324.360 173.802,324.800 174.200 C 325.240 174.598,325.600 175.322,325.600 175.808 C 325.600 176.294,325.960 177.150,326.400 177.709 C 326.840 178.269,327.200 178.970,327.200 179.269 C 327.200 179.568,327.547 180.460,327.972 181.252 C 328.396 182.044,328.873 183.391,329.032 184.246 C 329.191 185.101,329.542 186.160,329.813 186.600 C 330.084 187.040,330.412 188.120,330.543 189.000 C 330.674 189.880,331.145 191.313,331.590 192.185 C 332.050 193.083,332.401 194.555,332.402 195.585 C 332.404 196.583,332.658 197.885,332.967 198.477 C 334.823 202.036,334.864 234.731,333.019 240.800 C 332.718 241.790,332.372 243.564,332.250 244.742 C 332.128 245.921,331.872 247.091,331.681 247.342 C 331.490 247.594,331.110 248.880,330.836 250.200 C 330.561 251.520,330.088 253.140,329.785 253.800 C 329.481 254.460,329.109 255.720,328.958 256.600 C 328.808 257.480,328.350 258.629,327.942 259.154 C 327.534 259.679,327.200 260.422,327.200 260.805 C 327.200 261.188,326.949 261.710,326.642 261.965 C 326.335 262.220,325.970 263.034,325.831 263.774 C 325.693 264.514,325.262 265.542,324.875 266.059 C 324.037 267.181,322.000 271.371,322.000 271.975 C 322.000 272.209,321.825 272.400,321.610 272.400 C 321.396 272.400,320.956 272.911,320.633 273.535 C 319.838 275.073,315.952 280.230,314.103 282.202 C 313.276 283.084,312.240 284.259,311.800 284.813 C 311.360 285.368,310.370 286.262,309.600 286.800 C 308.830 287.339,307.570 288.387,306.800 289.129 C 306.030 289.872,304.860 290.757,304.200 291.096 C 303.540 291.434,302.910 291.822,302.800 291.957 C 302.437 292.402,299.363 294.400,299.042 294.400 C 298.868 294.400,298.269 294.760,297.709 295.200 C 297.150 295.640,296.384 296.000,296.008 296.000 C 295.632 296.000,294.998 296.360,294.600 296.800 C 293.966 297.500,292.000 297.951,292.000 297.396 C 292.000 297.284,292.630 296.295,293.400 295.200 C 294.170 294.105,294.800 292.961,294.800 292.658 C 294.800 292.355,295.127 291.679,295.527 291.154 C 299.580 285.832,300.383 270.901,297.146 261.045 C 295.713 256.683,293.078 251.200,292.414 251.200 C 292.234 251.200,291.983 250.795,291.856 250.300 C 291.439 248.672,282.191 240.000,280.871 240.000 C 280.710 240.000,280.270 239.640,279.893 239.200 C 279.516 238.760,278.784 238.400,278.266 238.400 C 277.748 238.400,276.998 238.040,276.600 237.600 C 276.202 237.160,275.409 236.799,274.838 236.797 C 274.267 236.796,273.260 236.437,272.600 236.000 C 271.940 235.563,270.950 235.203,270.400 235.200 C 269.850 235.197,268.860 234.907,268.200 234.556 C 265.526 233.131,247.450 232.848,245.358 234.198 C 244.896 234.497,243.816 234.871,242.958 235.030 C 242.101 235.188,240.773 235.651,240.006 236.059 C 239.239 236.466,238.285 236.800,237.885 236.800 C 237.485 236.800,236.403 237.191,235.479 237.668 C 234.556 238.146,233.596 238.641,233.346 238.768 C 232.735 239.081,228.252 242.116,228.000 242.388 C 227.890 242.507,227.096 243.130,226.235 243.772 C 222.024 246.914,214.416 256.968,213.641 260.414 C 213.456 261.240,213.010 262.335,212.652 262.847 C 212.293 263.359,211.996 264.323,211.991 264.989 C 211.986 265.655,211.626 266.985,211.191 267.944 C 210.012 270.543,210.018 286.554,211.200 289.000 C 211.625 289.880,211.979 291.163,211.986 291.852 C 212.000 293.091,213.659 297.244,214.603 298.400 C 214.872 298.730,215.201 299.450,215.334 300.000 C 215.594 301.078,217.381 303.270,220.667 306.542 C 224.500 310.357,225.950 311.566,227.954 312.614 C 229.052 313.188,230.163 313.915,230.424 314.229 C 230.685 314.543,231.194 314.800,231.555 314.800 C 231.916 314.800,232.884 315.160,233.704 315.600 C 234.525 316.040,235.605 316.400,236.104 316.400 C 236.604 316.400,237.684 316.760,238.504 317.200 C 239.325 317.640,240.493 318.000,241.099 317.999 C 242.444 317.999,249.269 319.588,249.738 320.012 C 249.924 320.180,249.368 320.436,248.502 320.583 C 247.636 320.729,246.465 321.089,245.899 321.382 C 245.334 321.676,243.550 322.139,241.936 322.411 C 240.321 322.683,238.303 323.152,237.450 323.453 C 236.597 323.754,235.343 324.000,234.663 324.000 C 233.982 324.000,231.980 324.357,230.213 324.792 C 218.223 327.749,164.166 327.651,150.600 324.649 C 149.060 324.308,146.942 324.023,145.893 324.015 C 144.844 324.007,142.324 323.655,140.293 323.234 C 138.262 322.813,135.517 322.370,134.193 322.250 C 132.870 322.130,131.250 321.773,130.593 321.457 C 129.937 321.141,128.140 320.762,126.600 320.617 C 125.060 320.471,123.215 320.084,122.500 319.757 C 121.785 319.430,120.255 319.056,119.100 318.925 C 117.945 318.795,116.550 318.468,116.000 318.198 C 115.450 317.929,114.045 317.587,112.879 317.438 C 111.712 317.289,110.182 316.917,109.479 316.613 C 108.775 316.308,106.580 315.584,104.600 315.005 C 102.620 314.426,99.920 313.617,98.600 313.208 C 97.280 312.798,95.435 312.343,94.500 312.196 C 93.565 312.050,92.800 311.773,92.800 311.581 C 92.800 311.389,92.035 311.010,91.100 310.739 C 90.165 310.467,89.040 310.030,88.600 309.768 C 88.160 309.505,87.089 309.165,86.220 309.012 C 85.352 308.859,84.277 308.479,83.831 308.167 C 83.386 307.855,82.744 307.600,82.405 307.600 C 82.066 307.600,81.116 307.240,80.296 306.800 C 79.475 306.360,78.575 306.000,78.296 306.000 C 78.016 306.000,77.161 305.664,76.394 305.253 C 75.627 304.843,74.430 304.382,73.733 304.229 C 73.037 304.076,72.374 303.709,72.260 303.413 C 72.147 303.117,71.502 302.754,70.828 302.606 C 66.602 301.678,63.928 299.372,65.073 297.644 C 65.454 297.070,66.313 295.520,66.984 294.200 C 67.654 292.880,68.517 291.355,68.901 290.811 C 69.286 290.267,69.600 289.524,69.600 289.160 C 69.600 288.796,69.858 288.283,70.174 288.021 C 70.490 287.759,70.862 287.030,71.000 286.400 C 71.138 285.770,71.509 285.042,71.823 284.781 C 72.137 284.520,72.582 283.608,72.813 282.753 C 73.043 281.899,73.386 281.200,73.576 281.200 C 73.765 281.200,74.136 280.300,74.400 279.200 C 74.664 278.100,75.008 277.200,75.165 277.200 C 75.480 277.200,77.347 272.500,77.786 270.604 C 77.939 269.946,78.230 269.305,78.434 269.179 C 78.888 268.898,81.181 262.483,81.192 261.462 C 81.196 261.056,81.454 260.246,81.764 259.662 C 82.553 258.177,84.799 250.945,84.802 249.880 C 84.804 249.396,85.048 248.534,85.345 247.964 C 85.643 247.395,86.370 244.695,86.962 241.964 C 87.555 239.234,88.301 236.121,88.622 235.048 C 88.942 233.974,89.318 231.814,89.457 230.248 C 89.595 228.681,89.866 227.199,90.059 226.954 C 90.479 226.418,91.170 221.355,91.188 218.686 C 91.194 217.633,91.463 216.370,91.785 215.878 C 92.144 215.331,92.467 213.437,92.619 210.992 C 92.756 208.797,93.126 206.313,93.441 205.474 C 93.757 204.634,94.114 202.564,94.236 200.874 C 94.357 199.183,94.698 197.080,94.992 196.200 C 95.287 195.320,95.648 193.436,95.794 192.014 C 95.940 190.592,96.180 189.242,96.327 189.014 C 96.844 188.215,97.565 184.984,97.582 183.389 C 97.592 182.503,97.883 181.373,98.230 180.879 C 98.576 180.384,98.964 178.949,99.090 177.690 C 99.217 176.430,99.654 174.773,100.060 174.006 C 100.467 173.239,100.801 172.069,100.803 171.406 C 100.804 170.743,101.163 169.660,101.600 169.000 C 102.037 168.340,102.397 167.350,102.399 166.800 C 102.401 166.250,102.735 165.256,103.140 164.592 C 103.545 163.927,104.009 162.677,104.171 161.812 C 104.333 160.948,104.721 159.877,105.033 159.431 C 105.345 158.986,105.600 158.291,105.600 157.886 C 105.600 156.073,112.353 142.953,115.836 138.000 C 117.460 135.690,118.918 133.530,119.075 133.200 C 119.689 131.908,132.253 119.095,133.301 118.693 C 133.685 118.546,134.000 118.239,134.000 118.013 C 134.000 117.786,134.246 117.600,134.548 117.600 C 134.849 117.600,136.044 116.845,137.202 115.923 C 139.241 114.299,139.993 113.828,143.400 112.044 C 144.280 111.582,145.540 110.846,146.200 110.407 C 146.860 109.968,147.670 109.494,148.000 109.354 C 148.330 109.213,149.500 108.695,150.600 108.202 C 151.700 107.710,153.095 107.189,153.700 107.046 C 154.305 106.902,154.800 106.622,154.800 106.424 C 154.800 106.226,155.385 105.935,156.100 105.778 C 156.815 105.622,158.027 105.157,158.794 104.747 C 159.561 104.336,160.627 104.000,161.163 104.000 C 161.699 104.000,162.448 103.719,162.827 103.375 C 163.207 103.032,164.571 102.651,165.859 102.528 C 167.146 102.406,168.614 102.047,169.120 101.731 C 169.626 101.414,171.696 100.980,173.720 100.765 C 175.744 100.551,177.832 100.156,178.360 99.888 C 180.059 99.025,207.339 99.211,209.508 100.100 C 210.448 100.485,211.999 100.800,212.956 100.800 C 213.913 100.800,215.823 101.160,217.200 101.600 C 218.577 102.040,220.140 102.400,220.673 102.400 C 221.206 102.400,222.307 102.738,223.121 103.152 C 224.700 103.954,227.710 105.029,230.000 105.608 C 231.814 106.067,240.751 110.589,243.641 112.510 C 244.874 113.330,246.025 114.000,246.198 114.000 C 246.485 114.000,250.091 116.937,251.602 118.400 C 251.943 118.730,252.756 119.452,253.411 120.004 C 255.235 121.545,259.600 127.135,259.600 127.930 C 259.600 128.129,259.943 128.728,260.361 129.260 C 260.780 129.793,261.327 130.987,261.577 131.914 C 261.827 132.841,262.193 133.600,262.391 133.600 C 262.589 133.600,262.867 134.455,263.009 135.500 C 263.427 138.579,263.548 138.800,264.808 138.800 C 266.234 138.800,270.715 132.378,270.787 130.229 C 270.800 129.858,273.553 123.886,274.582 122.000 C 274.881 121.450,275.260 120.280,275.424 119.400 C 275.587 118.520,275.950 117.440,276.231 117.000 C 276.511 116.560,276.872 115.484,277.032 114.608 C 277.192 113.733,277.655 112.473,278.060 111.808 C 278.465 111.144,278.798 110.194,278.799 109.699 C 278.799 109.203,279.160 108.125,279.600 107.304 C 280.040 106.484,280.400 105.354,280.400 104.795 C 280.400 104.236,280.654 103.415,280.964 102.972 C 281.275 102.529,281.723 101.114,281.961 99.828 C 282.199 98.542,282.580 97.266,282.807 96.991 C 283.035 96.717,283.334 95.256,283.472 93.746 C 283.609 92.236,284.054 90.373,284.461 89.606 C 284.867 88.839,285.200 87.444,285.200 86.504 C 285.200 85.561,285.558 84.129,286.000 83.304 C 286.513 82.348,286.806 81.019,286.818 79.606 C 286.827 78.393,287.096 76.680,287.416 75.800 C 287.735 74.920,288.200 72.490,288.449 70.400 C 289.004 65.748,289.953 63.971,291.342 64.983 C 291.814 65.327,292.650 65.796,293.200 66.026 " stroke="none" fill="#595a5a" fill-rule="evenodd"></path><path id="path3" d="M288.458 62.930 C 288.193 63.250,287.704 65.106,287.373 67.056 C 286.775 70.569,285.921 75.259,284.616 82.200 C 284.244 84.180,283.683 86.610,283.371 87.600 C 283.058 88.590,282.687 90.300,282.546 91.400 C 282.405 92.500,282.136 93.597,281.948 93.837 C 281.760 94.078,281.348 95.518,281.032 97.037 C 280.257 100.768,278.995 105.080,278.497 105.696 C 278.273 105.973,277.964 106.964,277.810 107.898 C 277.656 108.832,277.384 109.686,277.205 109.797 C 277.027 109.907,276.658 110.943,276.386 112.099 C 276.114 113.254,275.556 114.868,275.146 115.684 C 274.736 116.500,274.400 117.495,274.400 117.895 C 274.400 118.295,274.157 118.977,273.861 119.411 C 273.564 119.845,273.206 120.800,273.064 121.532 C 272.923 122.265,272.445 123.325,272.004 123.886 C 271.562 124.448,271.200 125.222,271.200 125.605 C 271.200 125.988,270.942 126.517,270.626 126.779 C 270.310 127.041,269.927 127.821,269.776 128.511 C 269.624 129.202,268.953 130.765,268.285 131.984 C 267.616 133.203,266.815 134.697,266.503 135.304 C 265.801 136.674,265.424 136.457,264.361 134.076 C 263.900 133.044,263.271 131.677,262.962 131.039 C 262.653 130.400,262.400 129.649,262.400 129.369 C 262.400 129.090,261.979 128.353,261.464 127.731 C 260.949 127.109,260.044 125.766,259.453 124.747 C 257.634 121.608,251.119 115.370,246.738 112.572 C 245.562 111.821,244.330 111.021,244.000 110.794 C 237.371 106.232,224.904 101.392,214.600 99.379 C 206.164 97.731,185.921 96.504,184.644 97.563 C 184.372 97.789,182.361 98.080,180.175 98.209 C 176.185 98.446,172.886 99.050,167.938 100.448 C 166.474 100.862,164.991 101.200,164.644 101.200 C 163.603 101.200,156.695 103.602,155.353 104.430 C 154.667 104.854,153.892 105.200,153.631 105.200 C 153.370 105.200,152.357 105.564,151.379 106.009 C 150.402 106.455,149.161 106.987,148.621 107.192 C 148.081 107.397,146.865 108.057,145.919 108.659 C 144.974 109.260,143.236 110.270,142.057 110.903 C 140.879 111.536,139.079 112.664,138.057 113.409 C 137.036 114.155,135.030 115.563,133.600 116.538 C 130.940 118.353,118.400 130.737,118.400 131.550 C 118.400 131.797,118.085 132.321,117.700 132.713 C 117.036 133.390,114.300 137.265,113.364 138.855 C 113.125 139.262,112.622 139.934,112.247 140.348 C 111.470 141.206,105.828 152.174,104.915 154.600 C 102.872 160.031,99.051 171.365,98.594 173.352 C 98.297 174.646,97.875 176.176,97.658 176.752 C 97.440 177.329,97.052 179.060,96.795 180.600 C 96.539 182.140,96.097 183.940,95.814 184.600 C 95.531 185.260,95.183 186.854,95.041 188.142 C 94.899 189.430,94.624 190.781,94.430 191.144 C 94.236 191.506,93.870 193.602,93.616 195.802 C 93.362 198.001,92.907 200.520,92.605 201.400 C 92.302 202.280,91.951 204.459,91.823 206.243 C 91.695 208.026,91.341 210.366,91.037 211.443 C 90.732 212.519,90.378 214.930,90.250 216.800 C 90.121 218.670,89.764 220.920,89.455 221.800 C 89.146 222.680,88.764 224.840,88.605 226.600 C 88.446 228.360,88.152 230.109,87.952 230.486 C 87.751 230.864,87.388 232.664,87.146 234.486 C 86.903 236.309,86.464 238.271,86.170 238.847 C 85.875 239.422,85.454 241.015,85.233 242.387 C 85.012 243.758,84.668 245.087,84.468 245.340 C 84.268 245.593,83.975 246.515,83.818 247.388 C 83.660 248.262,83.300 249.702,83.018 250.588 C 82.736 251.475,81.654 254.900,80.614 258.200 C 78.768 264.059,77.890 266.467,76.355 269.878 C 75.940 270.801,75.600 271.740,75.600 271.964 C 75.600 272.189,75.298 273.054,74.929 273.886 C 74.560 274.719,73.861 276.300,73.376 277.400 C 70.337 284.285,65.382 294.323,63.801 296.800 C 61.989 299.637,62.465 301.338,65.200 301.800 C 66.055 301.944,66.957 302.307,67.205 302.606 C 67.452 302.904,68.170 303.262,68.800 303.400 C 69.430 303.538,70.150 303.898,70.400 304.200 C 70.650 304.502,71.413 304.871,72.094 305.021 C 72.776 305.170,73.888 305.631,74.567 306.045 C 75.245 306.459,76.038 306.798,76.329 306.799 C 76.619 306.799,77.127 307.070,77.457 307.400 C 77.787 307.730,78.456 308.000,78.944 308.000 C 79.432 308.000,80.534 308.358,81.393 308.796 C 82.252 309.234,83.595 309.706,84.378 309.845 C 85.160 309.984,86.361 310.435,87.047 310.849 C 87.733 311.262,88.583 311.600,88.937 311.600 C 89.290 311.600,90.348 311.948,91.289 312.374 C 92.826 313.070,94.234 313.598,98.800 315.194 C 99.570 315.463,101.179 315.852,102.377 316.059 C 103.574 316.266,105.104 316.686,105.777 316.992 C 106.449 317.299,107.810 317.772,108.800 318.045 C 109.790 318.317,110.780 318.668,111.000 318.825 C 111.220 318.981,112.210 319.239,113.200 319.396 C 115.519 319.765,122.303 321.406,123.600 321.911 C 124.150 322.125,125.590 322.426,126.800 322.580 C 128.010 322.734,129.990 323.115,131.200 323.427 C 132.410 323.738,135.380 324.271,137.800 324.611 C 140.220 324.950,143.153 325.392,144.317 325.593 C 145.481 325.793,149.171 326.239,152.517 326.583 C 155.863 326.927,159.680 327.384,161.000 327.598 C 168.323 328.786,206.861 329.041,219.000 327.982 C 224.660 327.488,236.194 325.738,237.147 325.228 C 237.587 324.993,238.341 324.800,238.822 324.800 C 240.338 324.800,248.147 322.732,249.400 321.999 C 250.060 321.613,251.275 321.081,252.100 320.817 C 255.776 319.642,253.570 317.742,248.084 317.358 C 237.850 316.643,229.090 312.757,222.000 305.788 C 214.437 298.356,211.871 291.415,211.871 278.400 C 211.871 268.692,215.142 257.014,218.431 254.981 C 218.640 254.851,219.069 254.130,219.383 253.378 C 219.983 251.944,226.704 244.728,228.223 243.888 C 228.709 243.620,230.378 242.545,231.932 241.500 C 233.486 240.455,234.852 239.600,234.967 239.600 C 235.082 239.600,236.160 239.150,237.363 238.600 C 238.565 238.050,239.824 237.600,240.160 237.600 C 240.496 237.600,241.706 237.231,242.849 236.781 C 244.854 235.990,250.481 234.897,254.575 234.503 C 257.505 234.221,266.852 235.772,271.644 237.336 C 279.367 239.858,286.714 245.241,290.562 251.200 C 293.059 255.068,294.134 257.071,294.635 258.800 C 294.923 259.790,295.417 261.410,295.734 262.400 C 298.834 272.076,297.778 286.146,293.546 291.554 C 293.136 292.079,292.800 292.690,292.800 292.913 C 292.800 293.135,292.158 294.284,291.373 295.467 C 287.228 301.712,293.017 300.404,305.367 292.303 C 306.180 291.770,309.788 288.718,311.800 286.862 C 313.960 284.870,317.398 281.014,318.813 278.996 C 320.400 276.733,320.410 276.720,321.982 274.674 C 322.626 273.835,323.537 272.305,324.005 271.274 C 324.473 270.243,325.021 269.130,325.221 268.800 C 325.560 268.242,326.213 266.899,328.627 261.800 C 329.637 259.666,330.937 255.852,331.396 253.673 C 331.550 252.943,331.920 251.875,332.218 251.300 C 332.516 250.725,332.882 249.252,333.030 248.027 C 333.178 246.802,333.438 245.620,333.608 245.400 C 333.891 245.034,334.510 241.404,334.971 237.400 C 335.072 236.520,335.426 234.360,335.756 232.600 C 336.595 228.138,336.615 211.514,335.787 206.800 C 335.459 204.930,334.934 201.362,334.620 198.871 C 334.307 196.380,333.884 194.130,333.681 193.871 C 333.477 193.612,333.209 192.734,333.084 191.920 C 332.959 191.107,332.601 189.847,332.287 189.120 C 331.974 188.394,331.322 186.360,330.838 184.600 C 330.353 182.840,329.067 179.557,327.979 177.304 C 326.890 175.052,326.000 173.129,326.000 173.033 C 326.000 170.331,310.140 152.800,307.695 152.800 C 307.487 152.800,306.865 152.381,306.312 151.869 C 305.418 151.040,301.122 148.790,297.200 147.097 C 296.430 146.764,294.953 146.371,293.918 146.224 C 292.882 146.077,291.532 145.707,290.918 145.401 C 290.032 144.962,281.210 144.010,277.947 144.002 C 276.296 143.998,276.819 142.278,279.918 137.527 C 281.613 134.929,283.810 131.517,284.800 129.946 C 285.790 128.375,287.323 126.169,288.207 125.045 C 289.090 123.920,290.344 122.190,290.994 121.200 C 291.643 120.210,292.405 119.130,292.686 118.800 C 292.968 118.470,294.387 116.593,295.841 114.628 C 299.579 109.576,306.267 101.317,308.289 99.255 C 309.230 98.296,310.000 97.379,310.000 97.219 C 310.000 97.059,310.728 96.134,311.618 95.164 C 312.508 94.194,313.957 92.590,314.837 91.600 C 315.718 90.610,317.425 88.731,318.630 87.425 C 322.296 83.455,322.002 82.361,316.364 78.988 C 314.514 77.882,312.211 76.442,311.247 75.788 C 308.463 73.902,306.668 72.738,303.323 70.652 C 301.605 69.581,299.480 68.177,298.600 67.534 C 297.720 66.890,296.370 66.052,295.600 65.672 C 294.830 65.291,293.450 64.497,292.533 63.906 C 290.347 62.497,289.071 62.192,288.458 62.930 M292.835 64.849 C 293.844 65.482,294.772 66.000,294.896 66.000 C 295.020 66.000,297.830 67.800,301.141 70.000 C 304.452 72.200,307.305 74.007,307.480 74.015 C 307.656 74.023,308.955 74.908,310.367 75.983 C 311.778 77.057,313.398 78.173,313.967 78.462 C 322.108 82.607,322.112 82.699,314.426 91.200 C 313.531 92.190,312.124 93.790,311.300 94.757 C 310.475 95.723,308.890 97.523,307.778 98.757 C 305.044 101.790,296.910 112.010,293.110 117.186 C 291.408 119.504,288.978 122.803,287.708 124.519 C 285.349 127.706,284.649 128.742,283.193 131.200 C 281.934 133.326,279.138 137.690,277.864 139.519 C 276.794 141.054,275.818 143.952,276.232 144.365 C 276.335 144.469,278.710 144.701,281.510 144.883 C 291.073 145.501,299.815 148.065,304.999 151.771 C 306.098 152.557,307.208 153.200,307.465 153.200 C 307.723 153.200,307.993 153.369,308.067 153.577 C 308.140 153.784,308.983 154.478,309.941 155.119 C 314.924 158.456,324.835 170.658,326.390 175.370 C 326.637 176.118,327.349 177.727,327.972 178.946 C 328.596 180.165,329.594 182.836,330.190 184.881 C 330.786 186.927,331.529 189.195,331.841 189.922 C 336.667 201.176,336.516 237.218,331.585 251.200 C 329.924 255.912,329.600 256.929,329.600 257.444 C 329.600 258.001,328.038 261.489,324.695 268.400 C 319.546 279.043,309.991 289.271,299.800 295.048 C 293.371 298.693,291.200 299.321,291.200 297.538 C 291.200 297.064,291.615 296.119,292.123 295.438 C 303.686 279.929,298.330 252.432,281.600 241.421 C 270.860 234.352,254.739 231.996,243.496 235.852 C 241.903 236.398,239.963 237.007,239.184 237.206 C 237.235 237.702,231.739 240.613,229.800 242.177 C 228.920 242.886,227.895 243.633,227.522 243.837 C 226.300 244.504,221.024 249.792,219.961 251.414 C 216.421 256.816,215.711 257.964,214.904 259.592 C 214.411 260.586,214.006 261.675,214.004 262.011 C 214.002 262.347,213.753 262.977,213.451 263.411 C 213.149 263.845,212.779 264.830,212.628 265.600 C 212.477 266.370,212.105 268.080,211.800 269.400 C 207.346 288.703,217.736 309.271,234.831 314.991 C 236.684 315.611,238.830 316.351,239.600 316.635 C 240.370 316.920,243.245 317.444,245.989 317.799 C 248.734 318.155,251.002 318.480,251.030 318.523 C 252.369 320.526,249.789 321.881,241.400 323.579 C 238.815 324.103,237.355 324.414,233.000 325.371 C 230.292 325.966,227.427 326.354,219.000 327.265 C 213.765 327.831,172.512 327.827,166.400 327.260 C 163.870 327.025,159.457 326.656,156.593 326.439 C 153.730 326.223,150.040 325.776,148.393 325.446 C 146.747 325.116,144.320 324.727,143.000 324.582 C 140.169 324.270,132.530 323.014,129.986 322.441 C 129.004 322.220,126.220 321.568,123.800 320.992 C 121.380 320.416,117.780 319.610,115.800 319.201 C 113.820 318.793,110.255 317.815,107.877 317.029 C 105.499 316.243,103.339 315.602,103.077 315.605 C 102.326 315.613,93.579 312.793,91.756 311.956 C 90.852 311.540,89.890 311.200,89.618 311.200 C 89.346 311.200,88.646 310.936,88.062 310.613 C 87.478 310.290,85.560 309.548,83.800 308.965 C 79.915 307.678,72.028 304.433,71.200 303.780 C 70.870 303.520,70.060 303.179,69.400 303.023 C 68.740 302.866,67.930 302.504,67.600 302.219 C 67.270 301.934,66.313 301.480,65.472 301.210 C 63.434 300.556,63.020 299.435,64.141 297.600 C 65.345 295.629,68.197 290.175,69.266 287.800 C 69.761 286.700,70.914 284.360,71.828 282.600 C 72.742 280.840,73.619 278.861,73.777 278.202 C 73.935 277.543,74.275 276.752,74.532 276.444 C 74.789 276.136,75.561 274.335,76.246 272.442 C 76.931 270.549,77.870 268.100,78.333 267.000 C 79.467 264.304,82.699 254.416,83.629 250.800 C 83.883 249.810,84.462 247.830,84.915 246.400 C 85.367 244.970,85.865 243.080,86.020 242.200 C 86.176 241.320,86.574 239.520,86.906 238.200 C 88.188 233.097,90.304 221.633,90.823 216.976 C 91.060 214.850,91.402 212.720,91.584 212.243 C 91.765 211.766,92.046 209.761,92.209 207.788 C 92.371 205.814,92.680 203.750,92.894 203.200 C 93.109 202.650,93.518 200.580,93.804 198.600 C 94.669 192.609,95.982 185.904,96.385 185.418 C 96.594 185.166,96.879 184.159,97.019 183.180 C 98.676 171.553,110.356 141.516,114.432 138.400 C 114.576 138.290,115.343 137.210,116.136 136.000 C 119.074 131.517,120.005 130.426,126.092 124.328 C 129.586 120.827,133.583 117.243,135.215 116.148 C 140.518 112.591,146.782 108.871,149.508 107.659 C 150.989 107.001,153.280 105.979,154.600 105.388 C 157.997 103.868,162.261 102.410,164.600 101.969 C 165.700 101.762,167.500 101.332,168.600 101.014 C 179.133 97.972,203.004 97.066,210.800 99.413 C 211.790 99.711,213.985 100.156,215.677 100.401 C 226.117 101.916,242.296 109.289,250.528 116.283 C 258.075 122.695,264.000 131.564,264.000 136.449 C 264.000 137.681,264.923 137.801,266.252 136.742 C 266.907 136.220,270.398 129.276,270.409 128.476 C 270.414 128.104,270.770 127.350,271.200 126.800 C 271.630 126.250,271.986 125.544,271.991 125.231 C 271.996 124.919,272.244 124.379,272.542 124.031 C 272.839 123.684,273.578 121.960,274.183 120.200 C 274.788 118.440,275.441 116.640,275.634 116.200 C 275.828 115.760,276.599 113.510,277.349 111.200 C 278.099 108.890,278.898 106.550,279.125 106.000 C 280.153 103.503,282.289 95.577,282.819 92.288 C 283.024 91.016,283.464 89.450,283.796 88.808 C 284.128 88.165,284.401 87.046,284.403 86.320 C 284.405 85.594,284.748 83.877,285.165 82.505 C 285.582 81.133,286.048 79.063,286.201 77.905 C 286.353 76.747,286.738 74.540,287.055 73.000 C 287.372 71.460,287.808 68.940,288.024 67.400 C 288.699 62.601,288.999 62.442,292.835 64.849 " stroke="none" fill="#848484" fill-rule="evenodd"></path><path id="path4" d="M288.590 64.030 C 288.446 64.487,288.433 64.967,288.563 65.097 C 288.694 65.227,288.800 65.033,288.800 64.667 C 288.800 64.300,289.081 64.000,289.424 64.000 C 289.767 64.000,289.936 63.820,289.800 63.600 C 289.400 62.952,288.873 63.139,288.590 64.030 M297.982 68.178 C 298.290 68.549,299.095 69.134,299.771 69.477 C 301.295 70.252,301.052 69.967,299.000 68.574 C 298.132 67.985,297.674 67.807,297.982 68.178 M285.429 81.429 C 285.281 82.015,285.238 82.572,285.332 82.666 C 285.427 82.760,285.624 82.358,285.771 81.771 C 285.919 81.185,285.962 80.628,285.868 80.534 C 285.773 80.440,285.576 80.842,285.429 81.429 M284.501 85.800 C 284.505 86.680,284.587 86.993,284.683 86.495 C 284.779 85.998,284.775 85.278,284.675 84.895 C 284.575 84.513,284.496 84.920,284.501 85.800 M314.575 90.900 L 313.400 92.200 314.700 91.025 C 315.415 90.379,316.000 89.794,316.000 89.725 C 316.000 89.416,315.670 89.688,314.575 90.900 M282.893 92.400 C 282.893 93.170,282.975 93.485,283.076 93.100 C 283.176 92.715,283.176 92.085,283.076 91.700 C 282.975 91.315,282.893 91.630,282.893 92.400 M188.900 98.298 C 191.045 98.370,194.555 98.370,196.700 98.298 C 198.845 98.226,197.090 98.167,192.800 98.167 C 188.510 98.167,186.755 98.226,188.900 98.298 M156.400 104.600 C 155.850 104.914,155.580 105.172,155.800 105.172 C 156.020 105.172,156.650 104.914,157.200 104.600 C 157.750 104.286,158.020 104.028,157.800 104.028 C 157.580 104.028,156.950 104.286,156.400 104.600 M297.355 111.081 C 296.507 112.116,296.022 112.834,296.277 112.676 C 296.821 112.340,299.355 109.200,299.082 109.200 C 298.980 109.200,298.203 110.047,297.355 111.081 M143.100 111.029 C 141.605 111.840,141.696 112.178,143.200 111.400 C 143.860 111.059,144.400 110.694,144.400 110.590 C 144.400 110.332,144.357 110.347,143.100 111.029 M294.575 114.668 C 293.959 115.476,293.659 116.011,293.909 115.856 C 294.421 115.540,296.153 113.200,295.875 113.200 C 295.776 113.200,295.191 113.861,294.575 114.668 M249.400 115.600 C 250.259 116.480,251.052 117.200,251.162 117.200 C 251.272 117.200,250.659 116.480,249.800 115.600 C 248.941 114.720,248.148 114.000,248.038 114.000 C 247.928 114.000,248.541 114.720,249.400 115.600 M265.200 137.254 C 264.161 137.824,264.058 137.956,264.800 137.768 C 265.350 137.628,266.064 137.263,266.386 136.957 C 267.125 136.254,266.940 136.300,265.200 137.254 M324.415 172.200 C 324.417 172.420,324.786 173.050,325.236 173.600 C 325.779 174.264,325.915 174.331,325.640 173.800 C 324.966 172.495,324.412 171.772,324.415 172.200 M98.046 178.067 C 98.021 178.434,97.896 179.064,97.770 179.467 C 97.552 180.162,97.563 180.163,97.997 179.487 C 98.248 179.096,98.373 178.466,98.273 178.087 C 98.111 177.468,98.088 177.466,98.046 178.067 M334.509 205.200 C 334.509 206.190,334.587 206.595,334.682 206.100 C 334.778 205.605,334.778 204.795,334.682 204.300 C 334.587 203.805,334.509 204.210,334.509 205.200 M335.376 219.400 C 335.376 225.560,335.432 228.024,335.499 224.876 C 335.567 221.727,335.567 216.687,335.499 213.676 C 335.431 210.664,335.376 213.240,335.376 219.400 M334.501 234.200 C 334.505 235.080,334.587 235.393,334.683 234.895 C 334.779 234.398,334.775 233.678,334.675 233.295 C 334.575 232.913,334.496 233.320,334.501 234.200 M253.911 233.893 C 254.851 233.978,256.291 233.977,257.111 233.891 C 257.930 233.805,257.160 233.736,255.400 233.737 C 253.640 233.739,252.970 233.809,253.911 233.893 M249.505 234.283 C 250.002 234.379,250.722 234.375,251.105 234.275 C 251.487 234.175,251.080 234.096,250.200 234.101 C 249.320 234.105,249.007 234.187,249.505 234.283 M260.700 234.282 C 261.195 234.378,262.005 234.378,262.500 234.282 C 262.995 234.187,262.590 234.109,261.600 234.109 C 260.610 234.109,260.205 234.187,260.700 234.282 M277.633 238.921 C 277.725 238.988,278.340 239.358,279.000 239.745 L 280.200 240.447 279.256 239.624 C 278.736 239.171,278.121 238.800,277.889 238.800 C 277.657 238.800,277.542 238.854,277.633 238.921 M286.200 245.200 C 287.059 246.080,287.852 246.800,287.962 246.800 C 288.072 246.800,287.459 246.080,286.600 245.200 C 285.741 244.320,284.948 243.600,284.838 243.600 C 284.728 243.600,285.341 244.320,286.200 245.200 M222.778 247.900 L 221.400 249.400 222.900 248.022 C 224.296 246.738,224.584 246.400,224.278 246.400 C 224.212 246.400,223.537 247.075,222.778 247.900 M297.058 264.400 C 297.375 266.125,297.602 266.451,297.594 265.167 C 297.591 264.635,297.411 263.930,297.194 263.600 C 296.918 263.178,296.877 263.415,297.058 264.400 M323.078 271.005 C 322.712 271.772,322.495 272.400,322.596 272.400 C 322.870 272.400,324.084 269.951,323.901 269.768 C 323.814 269.681,323.444 270.238,323.078 271.005 M210.909 274.000 C 210.909 274.990,210.987 275.395,211.082 274.900 C 211.178 274.405,211.178 273.595,211.082 273.100 C 210.987 272.605,210.909 273.010,210.909 274.000 M298.101 279.400 C 298.105 280.280,298.187 280.593,298.283 280.095 C 298.379 279.598,298.375 278.878,298.275 278.495 C 298.175 278.113,298.096 278.520,298.101 279.400 M210.901 283.000 C 210.905 283.880,210.987 284.193,211.083 283.695 C 211.179 283.198,211.175 282.478,211.075 282.095 C 210.975 281.713,210.896 282.120,210.901 283.000 M314.000 283.400 C 313.028 284.390,312.323 285.200,312.433 285.200 C 312.543 285.200,313.428 284.390,314.400 283.400 C 315.372 282.410,316.077 281.600,315.967 281.600 C 315.857 281.600,314.972 282.410,314.000 283.400 M70.981 284.037 C 70.629 284.718,70.412 285.345,70.499 285.432 C 70.586 285.519,70.956 284.962,71.322 284.195 C 72.144 282.470,71.859 282.338,70.981 284.037 M307.775 289.300 L 306.600 290.600 307.900 289.425 C 308.615 288.779,309.200 288.194,309.200 288.125 C 309.200 287.816,308.870 288.088,307.775 289.300 M222.783 307.700 C 223.764 308.745,224.619 309.600,224.683 309.600 C 224.984 309.600,224.666 309.241,222.900 307.583 L 221.000 305.800 222.783 307.700 M244.500 317.876 C 244.885 317.976,245.515 317.976,245.900 317.876 C 246.285 317.775,245.970 317.693,245.200 317.693 C 244.430 317.693,244.115 317.775,244.500 317.876 M247.300 318.276 C 247.685 318.376,248.315 318.376,248.700 318.276 C 249.085 318.175,248.770 318.093,248.000 318.093 C 247.230 318.093,246.915 318.175,247.300 318.276 M250.681 319.387 C 251.615 320.671,252.109 320.678,251.527 319.400 C 251.277 318.850,250.822 318.400,250.517 318.400 C 250.089 318.400,250.126 318.625,250.681 319.387 M124.833 321.343 C 124.925 321.421,125.630 321.601,126.400 321.742 C 127.385 321.923,127.622 321.882,127.200 321.606 C 126.658 321.250,124.437 321.003,124.833 321.343 M147.200 325.200 C 148.568 325.638,149.619 325.638,148.600 325.200 C 148.160 325.011,147.440 324.862,147.000 324.868 C 146.357 324.877,146.396 324.943,147.200 325.200 M232.400 325.218 C 231.962 325.515,232.124 325.552,233.000 325.356 C 234.471 325.027,234.790 324.798,233.767 324.806 C 233.345 324.809,232.730 324.995,232.400 325.218 M150.900 325.876 C 151.285 325.976,151.915 325.976,152.300 325.876 C 152.685 325.775,152.370 325.693,151.600 325.693 C 150.830 325.693,150.515 325.775,150.900 325.876 M154.300 326.282 C 154.795 326.378,155.605 326.378,156.100 326.282 C 156.595 326.187,156.190 326.109,155.200 326.109 C 154.210 326.109,153.805 326.187,154.300 326.282 M225.905 326.283 C 226.402 326.379,227.122 326.375,227.505 326.275 C 227.887 326.175,227.480 326.096,226.600 326.101 C 225.720 326.105,225.407 326.187,225.905 326.283 M163.511 327.093 C 164.451 327.178,165.891 327.177,166.711 327.091 C 167.530 327.005,166.760 326.936,165.000 326.937 C 163.240 326.939,162.570 327.009,163.511 327.093 M218.700 327.089 C 219.415 327.178,220.585 327.178,221.300 327.089 C 222.015 327.001,221.430 326.928,220.000 326.928 C 218.570 326.928,217.985 327.001,218.700 327.089 M215.300 327.476 C 215.685 327.576,216.315 327.576,216.700 327.476 C 217.085 327.375,216.770 327.293,216.000 327.293 C 215.230 327.293,214.915 327.375,215.300 327.476 M185.723 327.899 C 188.541 327.968,193.041 327.968,195.723 327.899 C 198.405 327.830,196.100 327.773,190.600 327.773 C 185.100 327.774,182.905 327.830,185.723 327.899 " stroke="none" fill="#7c7c7c" fill-rule="evenodd"></path></g></svg>